solid JSCAD
facet normal -1 0 0
outer loop
vertex -25 -20 0
vertex -25 -20 30
vertex -25 20 30
endloop
endfacet
facet normal -1 0 0
outer loop
vertex -25 -20 0
vertex -25 20 30
vertex -25 20 0
endloop
endfacet
facet normal 1 0 0
outer loop
vertex 25 -20 0
vertex 25 20 0
vertex 25 20 30
endloop
endfacet
facet normal 1 0 0
outer loop
vertex 25 -20 0
vertex 25 20 30
vertex 25 -20 30
endloop
endfacet
facet normal 0 -1 0
outer loop
vertex -25 -20 0
vertex 25 -20 0
vertex 25 -20 30
endloop
endfacet
facet normal 0 -1 0
outer loop
vertex -25 -20 0
vertex 25 -20 30
vertex -25 -20 30
endloop
endfacet
facet normal 0 1 0
outer loop
vertex -25 20 0
vertex -25 20 30
vertex 25 20 30
endloop
endfacet
facet normal 0 1 0
outer loop
vertex -25 20 0
vertex 25 20 30
vertex 25 20 0
endloop
endfacet
facet normal 0 0 -1
outer loop
vertex -25 -20 0
vertex -25 20 0
vertex 25 20 0
endloop
endfacet
facet normal 0 0 -1
outer loop
vertex -25 -20 0
vertex 25 20 0
vertex 25 -20 0
endloop
endfacet
facet normal 0 0 1
outer loop
vertex -25 -20 30
vertex 25 -20 30
vertex 25 20 30
endloop
endfacet
facet normal 0 0 1
outer loop
vertex -25 -20 30
vertex 25 20 30
vertex -25 20 30
endloop
endfacet
endsolid JSCAD
