solid JSCAD
facet normal 0.9951974108746768 0.09788826992208867 0
outer loop
vertex 25 24.5 0.5
vertex 24.9904 24.5976 0.5
vertex 24.9904 24.5976 20
endloop
endfacet
facet normal 0.9951974108746768 0.09788826992208867 0
outer loop
vertex 25 24.5 0.5
vertex 24.9904 24.5976 20
vertex 25 24.5 20
endloop
endfacet
facet normal 0.9569211628684003 0.29034787420366676 0
outer loop
vertex 24.9904 24.5976 0.5
vertex 24.962 24.691200000000002 0.5
vertex 24.962 24.691200000000002 20
endloop
endfacet
facet normal 0.9569211628684003 0.29034787420366676 0
outer loop
vertex 24.9904 24.5976 0.5
vertex 24.962 24.691200000000002 20
vertex 24.9904 24.5976 20
endloop
endfacet
facet normal 0.8809944292988945 0.473126637956811 0
outer loop
vertex 24.962 24.691200000000002 0.5
vertex 24.9156 24.7776 0.5
vertex 24.9156 24.7776 20
endloop
endfacet
facet normal 0.8809944292988945 0.473126637956811 0
outer loop
vertex 24.962 24.691200000000002 0.5
vertex 24.9156 24.7776 20
vertex 24.962 24.691200000000002 20
endloop
endfacet
facet normal 0.7748650207718727 0.6321267274717984 0
outer loop
vertex 24.9156 24.7776 0.5
vertex 24.8536 24.8536 0.5
vertex 24.8536 24.8536 20
endloop
endfacet
facet normal 0.7748650207718727 0.6321267274717984 0
outer loop
vertex 24.9156 24.7776 0.5
vertex 24.8536 24.8536 20
vertex 24.9156 24.7776 20
endloop
endfacet
facet normal 0.6321267274717984 0.7748650207718727 0
outer loop
vertex 24.8536 24.8536 0.5
vertex 24.7776 24.9156 0.5
vertex 24.7776 24.9156 20
endloop
endfacet
facet normal 0.6321267274717984 0.7748650207718727 0
outer loop
vertex 24.8536 24.8536 0.5
vertex 24.7776 24.9156 20
vertex 24.8536 24.8536 20
endloop
endfacet
facet normal 0.473126637956811 0.8809944292988945 0
outer loop
vertex 24.7776 24.9156 0.5
vertex 24.691200000000002 24.962 0.5
vertex 24.691200000000002 24.962 20
endloop
endfacet
facet normal 0.473126637956811 0.8809944292988945 0
outer loop
vertex 24.7776 24.9156 0.5
vertex 24.691200000000002 24.962 20
vertex 24.7776 24.9156 20
endloop
endfacet
facet normal 0.29034787420366676 0.9569211628684003 0
outer loop
vertex 24.691200000000002 24.962 0.5
vertex 24.5976 24.9904 0.5
vertex 24.5976 24.9904 20
endloop
endfacet
facet normal 0.29034787420366676 0.9569211628684003 0
outer loop
vertex 24.691200000000002 24.962 0.5
vertex 24.5976 24.9904 20
vertex 24.691200000000002 24.962 20
endloop
endfacet
facet normal 0.09788826992208867 0.9951974108746768 0
outer loop
vertex 24.5976 24.9904 0.5
vertex 24.5 25 0.5
vertex 24.5 25 20
endloop
endfacet
facet normal 0.09788826992208867 0.9951974108746768 0
outer loop
vertex 24.5976 24.9904 0.5
vertex 24.5 25 20
vertex 24.5976 24.9904 20
endloop
endfacet
facet normal -0.09788826992208867 0.9951974108746768 0
outer loop
vertex -24.5 25 0.5
vertex -24.5976 24.9904 0.5
vertex -24.5976 24.9904 20
endloop
endfacet
facet normal -0.09788826992208867 0.9951974108746768 0
outer loop
vertex -24.5 25 0.5
vertex -24.5976 24.9904 20
vertex -24.5 25 20
endloop
endfacet
facet normal -0.29034787420366676 0.9569211628684003 0
outer loop
vertex -24.5976 24.9904 0.5
vertex -24.691200000000002 24.962 0.5
vertex -24.691200000000002 24.962 20
endloop
endfacet
facet normal -0.29034787420366676 0.9569211628684003 0
outer loop
vertex -24.5976 24.9904 0.5
vertex -24.691200000000002 24.962 20
vertex -24.5976 24.9904 20
endloop
endfacet
facet normal -0.473126637956811 0.8809944292988945 0
outer loop
vertex -24.691200000000002 24.962 0.5
vertex -24.7776 24.9156 0.5
vertex -24.7776 24.9156 20
endloop
endfacet
facet normal -0.473126637956811 0.8809944292988945 0
outer loop
vertex -24.691200000000002 24.962 0.5
vertex -24.7776 24.9156 20
vertex -24.691200000000002 24.962 20
endloop
endfacet
facet normal -0.6321267274717984 0.7748650207718727 0
outer loop
vertex -24.7776 24.9156 0.5
vertex -24.8536 24.8536 0.5
vertex -24.8536 24.8536 20
endloop
endfacet
facet normal -0.6321267274717984 0.7748650207718727 0
outer loop
vertex -24.7776 24.9156 0.5
vertex -24.8536 24.8536 20
vertex -24.7776 24.9156 20
endloop
endfacet
facet normal -0.7748650207718727 0.6321267274717984 0
outer loop
vertex -24.8536 24.8536 0.5
vertex -24.9156 24.7776 0.5
vertex -24.9156 24.7776 20
endloop
endfacet
facet normal -0.7748650207718727 0.6321267274717984 0
outer loop
vertex -24.8536 24.8536 0.5
vertex -24.9156 24.7776 20
vertex -24.8536 24.8536 20
endloop
endfacet
facet normal -0.8809944292988945 0.473126637956811 0
outer loop
vertex -24.9156 24.7776 0.5
vertex -24.962 24.691200000000002 0.5
vertex -24.962 24.691200000000002 20
endloop
endfacet
facet normal -0.8809944292988945 0.473126637956811 0
outer loop
vertex -24.9156 24.7776 0.5
vertex -24.962 24.691200000000002 20
vertex -24.9156 24.7776 20
endloop
endfacet
facet normal -0.9569211628684003 0.29034787420366676 0
outer loop
vertex -24.962 24.691200000000002 0.5
vertex -24.9904 24.5976 0.5
vertex -24.9904 24.5976 20
endloop
endfacet
facet normal -0.9569211628684003 0.29034787420366676 0
outer loop
vertex -24.962 24.691200000000002 0.5
vertex -24.9904 24.5976 20
vertex -24.962 24.691200000000002 20
endloop
endfacet
facet normal -0.9951974108746768 0.09788826992208867 0
outer loop
vertex -24.9904 24.5976 0.5
vertex -25 24.5 0.5
vertex -25 24.5 20
endloop
endfacet
facet normal -0.9951974108746768 0.09788826992208867 0
outer loop
vertex -24.9904 24.5976 0.5
vertex -25 24.5 20
vertex -24.9904 24.5976 20
endloop
endfacet
facet normal -0.9951974108746768 -0.09788826992208867 0
outer loop
vertex -25 -24.5 0.5
vertex -24.9904 -24.5976 0.5
vertex -24.9904 -24.5976 20
endloop
endfacet
facet normal -0.9951974108746768 -0.09788826992208867 0
outer loop
vertex -25 -24.5 0.5
vertex -24.9904 -24.5976 20
vertex -25 -24.5 20
endloop
endfacet
facet normal -0.9569211628684003 -0.29034787420366676 0
outer loop
vertex -24.9904 -24.5976 0.5
vertex -24.962 -24.691200000000002 0.5
vertex -24.962 -24.691200000000002 20
endloop
endfacet
facet normal -0.9569211628684003 -0.29034787420366676 0
outer loop
vertex -24.9904 -24.5976 0.5
vertex -24.962 -24.691200000000002 20
vertex -24.9904 -24.5976 20
endloop
endfacet
facet normal -0.8809944292988945 -0.473126637956811 0
outer loop
vertex -24.962 -24.691200000000002 0.5
vertex -24.9156 -24.7776 0.5
vertex -24.9156 -24.7776 20
endloop
endfacet
facet normal -0.8809944292988945 -0.473126637956811 0
outer loop
vertex -24.962 -24.691200000000002 0.5
vertex -24.9156 -24.7776 20
vertex -24.962 -24.691200000000002 20
endloop
endfacet
facet normal -0.7748650207718727 -0.6321267274717984 0
outer loop
vertex -24.9156 -24.7776 0.5
vertex -24.8536 -24.8536 0.5
vertex -24.8536 -24.8536 20
endloop
endfacet
facet normal -0.7748650207718727 -0.6321267274717984 0
outer loop
vertex -24.9156 -24.7776 0.5
vertex -24.8536 -24.8536 20
vertex -24.9156 -24.7776 20
endloop
endfacet
facet normal -0.6321267274717984 -0.7748650207718727 0
outer loop
vertex -24.8536 -24.8536 0.5
vertex -24.7776 -24.9156 0.5
vertex -24.7776 -24.9156 20
endloop
endfacet
facet normal -0.6321267274717984 -0.7748650207718727 0
outer loop
vertex -24.8536 -24.8536 0.5
vertex -24.7776 -24.9156 20
vertex -24.8536 -24.8536 20
endloop
endfacet
facet normal -0.473126637956811 -0.8809944292988945 0
outer loop
vertex -24.7776 -24.9156 0.5
vertex -24.691200000000002 -24.962 0.5
vertex -24.691200000000002 -24.962 20
endloop
endfacet
facet normal -0.473126637956811 -0.8809944292988945 0
outer loop
vertex -24.7776 -24.9156 0.5
vertex -24.691200000000002 -24.962 20
vertex -24.7776 -24.9156 20
endloop
endfacet
facet normal -0.29034787420366676 -0.9569211628684003 0
outer loop
vertex -24.691200000000002 -24.962 0.5
vertex -24.5976 -24.9904 0.5
vertex -24.5976 -24.9904 20
endloop
endfacet
facet normal -0.29034787420366676 -0.9569211628684003 0
outer loop
vertex -24.691200000000002 -24.962 0.5
vertex -24.5976 -24.9904 20
vertex -24.691200000000002 -24.962 20
endloop
endfacet
facet normal -0.09788826992208867 -0.9951974108746768 0
outer loop
vertex -24.5976 -24.9904 0.5
vertex -24.5 -25 0.5
vertex -24.5 -25 20
endloop
endfacet
facet normal -0.09788826992208867 -0.9951974108746768 0
outer loop
vertex -24.5976 -24.9904 0.5
vertex -24.5 -25 20
vertex -24.5976 -24.9904 20
endloop
endfacet
facet normal 0.09788826992208867 -0.9951974108746768 0
outer loop
vertex 24.5 -25 0.5
vertex 24.5976 -24.9904 0.5
vertex 24.5976 -24.9904 20
endloop
endfacet
facet normal 0.09788826992208867 -0.9951974108746768 0
outer loop
vertex 24.5 -25 0.5
vertex 24.5976 -24.9904 20
vertex 24.5 -25 20
endloop
endfacet
facet normal 0.29034787420366676 -0.9569211628684003 0
outer loop
vertex 24.5976 -24.9904 0.5
vertex 24.691200000000002 -24.962 0.5
vertex 24.691200000000002 -24.962 20
endloop
endfacet
facet normal 0.29034787420366676 -0.9569211628684003 0
outer loop
vertex 24.5976 -24.9904 0.5
vertex 24.691200000000002 -24.962 20
vertex 24.5976 -24.9904 20
endloop
endfacet
facet normal 0.473126637956811 -0.8809944292988945 0
outer loop
vertex 24.691200000000002 -24.962 0.5
vertex 24.7776 -24.9156 0.5
vertex 24.7776 -24.9156 20
endloop
endfacet
facet normal 0.473126637956811 -0.8809944292988945 0
outer loop
vertex 24.691200000000002 -24.962 0.5
vertex 24.7776 -24.9156 20
vertex 24.691200000000002 -24.962 20
endloop
endfacet
facet normal 0.6321267274717984 -0.7748650207718727 0
outer loop
vertex 24.7776 -24.9156 0.5
vertex 24.8536 -24.8536 0.5
vertex 24.8536 -24.8536 20
endloop
endfacet
facet normal 0.6321267274717984 -0.7748650207718727 0
outer loop
vertex 24.7776 -24.9156 0.5
vertex 24.8536 -24.8536 20
vertex 24.7776 -24.9156 20
endloop
endfacet
facet normal 0.7748650207718727 -0.6321267274717984 0
outer loop
vertex 24.8536 -24.8536 0.5
vertex 24.9156 -24.7776 0.5
vertex 24.9156 -24.7776 20
endloop
endfacet
facet normal 0.7748650207718727 -0.6321267274717984 0
outer loop
vertex 24.8536 -24.8536 0.5
vertex 24.9156 -24.7776 20
vertex 24.8536 -24.8536 20
endloop
endfacet
facet normal 0.8809944292988945 -0.473126637956811 0
outer loop
vertex 24.9156 -24.7776 0.5
vertex 24.962 -24.691200000000002 0.5
vertex 24.962 -24.691200000000002 20
endloop
endfacet
facet normal 0.8809944292988945 -0.473126637956811 0
outer loop
vertex 24.9156 -24.7776 0.5
vertex 24.962 -24.691200000000002 20
vertex 24.9156 -24.7776 20
endloop
endfacet
facet normal 0.9569211628684003 -0.29034787420366676 0
outer loop
vertex 24.962 -24.691200000000002 0.5
vertex 24.9904 -24.5976 0.5
vertex 24.9904 -24.5976 20
endloop
endfacet
facet normal 0.9569211628684003 -0.29034787420366676 0
outer loop
vertex 24.962 -24.691200000000002 0.5
vertex 24.9904 -24.5976 20
vertex 24.962 -24.691200000000002 20
endloop
endfacet
facet normal 0.9951974108746768 -0.09788826992208867 0
outer loop
vertex 24.9904 -24.5976 0.5
vertex 25 -24.5 0.5
vertex 25 -24.5 20
endloop
endfacet
facet normal 0.9951974108746768 -0.09788826992208867 0
outer loop
vertex 24.9904 -24.5976 0.5
vertex 25 -24.5 20
vertex 24.9904 -24.5976 20
endloop
endfacet
facet normal 0.9904633582915201 -0.09742262540571266 -0.0974226254057126
outer loop
vertex 25 -24.5 0.5
vertex 24.9904 -24.5976 0.5
vertex 24.9904 -24.5 0.40240000000000004
endloop
endfacet
facet normal 0.9873498438067536 -0.11211664893043158 -0.11211664893043151
outer loop
vertex 24.9904 -24.5 0.40240000000000004
vertex 24.9904 -24.5976 0.5
vertex 24.978 -24.6092 0.40240000000000004
endloop
endfacet
facet normal 0.9533145664331267 -0.2892535650288615 -0.08673933677699923
outer loop
vertex 24.9904 -24.5976 0.5
vertex 24.962 -24.691200000000002 0.5
vertex 24.978 -24.6092 0.40240000000000004
endloop
endfacet
facet normal 0.9377640064678477 -0.3258639404714648 -0.12004732597513437
outer loop
vertex 24.978 -24.6092 0.40240000000000004
vertex 24.962 -24.691200000000002 0.5
vertex 24.942 -24.7128 0.40240000000000004
endloop
endfacet
facet normal 0.8784728030340286 -0.47177243125901264 -0.0756062658348956
outer loop
vertex 24.962 -24.691200000000002 0.5
vertex 24.9156 -24.7776 0.5
vertex 24.942 -24.7128 0.40240000000000004
endloop
endfacet
facet normal 0.8398507423684313 -0.5285267602835693 -0.12373436954763013
outer loop
vertex 24.942 -24.7128 0.40240000000000004
vertex 24.9156 -24.7776 0.5
vertex 24.8836 -24.805600000000002 0.40240000000000004
endloop
endfacet
facet normal 0.772825058366535 -0.6304625476148125 -0.07251486203394444
outer loop
vertex 24.9156 -24.7776 0.5
vertex 24.8536 -24.8536 0.5
vertex 24.8836 -24.805600000000002 0.40240000000000004
endloop
endfacet
facet normal 0.7011696899307919 -0.7011696899307919 -0.12931408215934678
outer loop
vertex 24.8836 -24.805600000000002 0.40240000000000004
vertex 24.8536 -24.8536 0.5
vertex 24.805600000000002 -24.8836 0.40240000000000004
endloop
endfacet
facet normal 0.6304625476148125 -0.772825058366535 -0.07251486203394444
outer loop
vertex 24.8536 -24.8536 0.5
vertex 24.7776 -24.9156 0.5
vertex 24.805600000000002 -24.8836 0.40240000000000004
endloop
endfacet
facet normal 0.5285267602835693 -0.8398507423684313 -0.12373436954763015
outer loop
vertex 24.805600000000002 -24.8836 0.40240000000000004
vertex 24.7776 -24.9156 0.5
vertex 24.7128 -24.942 0.40240000000000004
endloop
endfacet
facet normal 0.47177243125901264 -0.8784728030340286 -0.07560626583489562
outer loop
vertex 24.7776 -24.9156 0.5
vertex 24.691200000000002 -24.962 0.5
vertex 24.7128 -24.942 0.40240000000000004
endloop
endfacet
facet normal 0.3258639404714648 -0.9377640064678477 -0.12004732597513437
outer loop
vertex 24.7128 -24.942 0.40240000000000004
vertex 24.691200000000002 -24.962 0.5
vertex 24.6092 -24.978 0.40240000000000004
endloop
endfacet
facet normal 0.2892535650288615 -0.9533145664331267 -0.08673933677699923
outer loop
vertex 24.691200000000002 -24.962 0.5
vertex 24.5976 -24.9904 0.5
vertex 24.6092 -24.978 0.40240000000000004
endloop
endfacet
facet normal 0.11211664893043158 -0.9873498438067536 -0.11211664893043151
outer loop
vertex 24.6092 -24.978 0.40240000000000004
vertex 24.5976 -24.9904 0.5
vertex 24.5 -24.9904 0.40240000000000004
endloop
endfacet
facet normal 0.09742262540571266 -0.9904633582915201 -0.0974226254057126
outer loop
vertex 24.5976 -24.9904 0.5
vertex 24.5 -25 0.5
vertex 24.5 -24.9904 0.40240000000000004
endloop
endfacet
facet normal -0.09742262540571266 -0.9904633582915201 -0.0974226254057126
outer loop
vertex -24.5 -25 0.5
vertex -24.5976 -24.9904 0.5
vertex -24.5 -24.9904 0.40240000000000004
endloop
endfacet
facet normal -0.11211664893043158 -0.9873498438067536 -0.11211664893043151
outer loop
vertex -24.5 -24.9904 0.40240000000000004
vertex -24.5976 -24.9904 0.5
vertex -24.6092 -24.978 0.40240000000000004
endloop
endfacet
facet normal -0.2892535650288615 -0.9533145664331267 -0.08673933677699923
outer loop
vertex -24.5976 -24.9904 0.5
vertex -24.691200000000002 -24.962 0.5
vertex -24.6092 -24.978 0.40240000000000004
endloop
endfacet
facet normal -0.3258639404714648 -0.9377640064678477 -0.12004732597513437
outer loop
vertex -24.6092 -24.978 0.40240000000000004
vertex -24.691200000000002 -24.962 0.5
vertex -24.7128 -24.942 0.40240000000000004
endloop
endfacet
facet normal -0.47177243125901264 -0.8784728030340286 -0.0756062658348956
outer loop
vertex -24.691200000000002 -24.962 0.5
vertex -24.7776 -24.9156 0.5
vertex -24.7128 -24.942 0.40240000000000004
endloop
endfacet
facet normal -0.5285267602835693 -0.8398507423684313 -0.12373436954763013
outer loop
vertex -24.7128 -24.942 0.40240000000000004
vertex -24.7776 -24.9156 0.5
vertex -24.805600000000002 -24.8836 0.40240000000000004
endloop
endfacet
facet normal -0.6304625476148125 -0.772825058366535 -0.07251486203394444
outer loop
vertex -24.7776 -24.9156 0.5
vertex -24.8536 -24.8536 0.5
vertex -24.805600000000002 -24.8836 0.40240000000000004
endloop
endfacet
facet normal -0.7011696899307919 -0.7011696899307919 -0.12931408215934678
outer loop
vertex -24.805600000000002 -24.8836 0.40240000000000004
vertex -24.8536 -24.8536 0.5
vertex -24.8836 -24.805600000000002 0.40240000000000004
endloop
endfacet
facet normal -0.772825058366535 -0.6304625476148125 -0.07251486203394444
outer loop
vertex -24.8536 -24.8536 0.5
vertex -24.9156 -24.7776 0.5
vertex -24.8836 -24.805600000000002 0.40240000000000004
endloop
endfacet
facet normal -0.8398507423684313 -0.5285267602835693 -0.12373436954763015
outer loop
vertex -24.8836 -24.805600000000002 0.40240000000000004
vertex -24.9156 -24.7776 0.5
vertex -24.942 -24.7128 0.40240000000000004
endloop
endfacet
facet normal -0.8784728030340286 -0.47177243125901264 -0.07560626583489562
outer loop
vertex -24.9156 -24.7776 0.5
vertex -24.962 -24.691200000000002 0.5
vertex -24.942 -24.7128 0.40240000000000004
endloop
endfacet
facet normal -0.9377640064678477 -0.3258639404714648 -0.12004732597513437
outer loop
vertex -24.942 -24.7128 0.40240000000000004
vertex -24.962 -24.691200000000002 0.5
vertex -24.978 -24.6092 0.40240000000000004
endloop
endfacet
facet normal -0.9533145664331267 -0.2892535650288615 -0.08673933677699923
outer loop
vertex -24.962 -24.691200000000002 0.5
vertex -24.9904 -24.5976 0.5
vertex -24.978 -24.6092 0.40240000000000004
endloop
endfacet
facet normal -0.9873498438067536 -0.11211664893043158 -0.11211664893043151
outer loop
vertex -24.978 -24.6092 0.40240000000000004
vertex -24.9904 -24.5976 0.5
vertex -24.9904 -24.5 0.40240000000000004
endloop
endfacet
facet normal -0.9904633582915201 -0.09742262540571266 -0.0974226254057126
outer loop
vertex -24.9904 -24.5976 0.5
vertex -25 -24.5 0.5
vertex -24.9904 -24.5 0.40240000000000004
endloop
endfacet
facet normal -0.9904633582915201 0.09742262540571266 -0.0974226254057126
outer loop
vertex -25 24.5 0.5
vertex -24.9904 24.5976 0.5
vertex -24.9904 24.5 0.40240000000000004
endloop
endfacet
facet normal -0.9873498438067536 0.11211664893043158 -0.11211664893043151
outer loop
vertex -24.9904 24.5 0.40240000000000004
vertex -24.9904 24.5976 0.5
vertex -24.978 24.6092 0.40240000000000004
endloop
endfacet
facet normal -0.9533145664331267 0.2892535650288615 -0.08673933677699923
outer loop
vertex -24.9904 24.5976 0.5
vertex -24.962 24.691200000000002 0.5
vertex -24.978 24.6092 0.40240000000000004
endloop
endfacet
facet normal -0.9377640064678477 0.3258639404714648 -0.12004732597513437
outer loop
vertex -24.978 24.6092 0.40240000000000004
vertex -24.962 24.691200000000002 0.5
vertex -24.942 24.7128 0.40240000000000004
endloop
endfacet
facet normal -0.8784728030340286 0.47177243125901264 -0.0756062658348956
outer loop
vertex -24.962 24.691200000000002 0.5
vertex -24.9156 24.7776 0.5
vertex -24.942 24.7128 0.40240000000000004
endloop
endfacet
facet normal -0.8398507423684313 0.5285267602835693 -0.12373436954763013
outer loop
vertex -24.942 24.7128 0.40240000000000004
vertex -24.9156 24.7776 0.5
vertex -24.8836 24.805600000000002 0.40240000000000004
endloop
endfacet
facet normal -0.772825058366535 0.6304625476148125 -0.07251486203394444
outer loop
vertex -24.9156 24.7776 0.5
vertex -24.8536 24.8536 0.5
vertex -24.8836 24.805600000000002 0.40240000000000004
endloop
endfacet
facet normal -0.7011696899307919 0.7011696899307919 -0.12931408215934678
outer loop
vertex -24.8836 24.805600000000002 0.40240000000000004
vertex -24.8536 24.8536 0.5
vertex -24.805600000000002 24.8836 0.40240000000000004
endloop
endfacet
facet normal -0.6304625476148125 0.772825058366535 -0.07251486203394444
outer loop
vertex -24.8536 24.8536 0.5
vertex -24.7776 24.9156 0.5
vertex -24.805600000000002 24.8836 0.40240000000000004
endloop
endfacet
facet normal -0.5285267602835693 0.8398507423684313 -0.12373436954763015
outer loop
vertex -24.805600000000002 24.8836 0.40240000000000004
vertex -24.7776 24.9156 0.5
vertex -24.7128 24.942 0.40240000000000004
endloop
endfacet
facet normal -0.47177243125901264 0.8784728030340286 -0.07560626583489562
outer loop
vertex -24.7776 24.9156 0.5
vertex -24.691200000000002 24.962 0.5
vertex -24.7128 24.942 0.40240000000000004
endloop
endfacet
facet normal -0.3258639404714648 0.9377640064678477 -0.12004732597513437
outer loop
vertex -24.7128 24.942 0.40240000000000004
vertex -24.691200000000002 24.962 0.5
vertex -24.6092 24.978 0.40240000000000004
endloop
endfacet
facet normal -0.2892535650288615 0.9533145664331267 -0.08673933677699923
outer loop
vertex -24.691200000000002 24.962 0.5
vertex -24.5976 24.9904 0.5
vertex -24.6092 24.978 0.40240000000000004
endloop
endfacet
facet normal -0.11211664893043158 0.9873498438067536 -0.11211664893043151
outer loop
vertex -24.6092 24.978 0.40240000000000004
vertex -24.5976 24.9904 0.5
vertex -24.5 24.9904 0.40240000000000004
endloop
endfacet
facet normal -0.09742262540571266 0.9904633582915201 -0.0974226254057126
outer loop
vertex -24.5976 24.9904 0.5
vertex -24.5 25 0.5
vertex -24.5 24.9904 0.40240000000000004
endloop
endfacet
facet normal 0.09742262540571266 0.9904633582915201 -0.0974226254057126
outer loop
vertex 24.5 25 0.5
vertex 24.5976 24.9904 0.5
vertex 24.5 24.9904 0.40240000000000004
endloop
endfacet
facet normal 0.11211664893043158 0.9873498438067536 -0.11211664893043151
outer loop
vertex 24.5 24.9904 0.40240000000000004
vertex 24.5976 24.9904 0.5
vertex 24.6092 24.978 0.40240000000000004
endloop
endfacet
facet normal 0.2892535650288615 0.9533145664331267 -0.08673933677699923
outer loop
vertex 24.5976 24.9904 0.5
vertex 24.691200000000002 24.962 0.5
vertex 24.6092 24.978 0.40240000000000004
endloop
endfacet
facet normal 0.3258639404714648 0.9377640064678477 -0.12004732597513437
outer loop
vertex 24.6092 24.978 0.40240000000000004
vertex 24.691200000000002 24.962 0.5
vertex 24.7128 24.942 0.40240000000000004
endloop
endfacet
facet normal 0.47177243125901264 0.8784728030340286 -0.0756062658348956
outer loop
vertex 24.691200000000002 24.962 0.5
vertex 24.7776 24.9156 0.5
vertex 24.7128 24.942 0.40240000000000004
endloop
endfacet
facet normal 0.5285267602835693 0.8398507423684313 -0.12373436954763013
outer loop
vertex 24.7128 24.942 0.40240000000000004
vertex 24.7776 24.9156 0.5
vertex 24.805600000000002 24.8836 0.40240000000000004
endloop
endfacet
facet normal 0.6304625476148125 0.772825058366535 -0.07251486203394444
outer loop
vertex 24.7776 24.9156 0.5
vertex 24.8536 24.8536 0.5
vertex 24.805600000000002 24.8836 0.40240000000000004
endloop
endfacet
facet normal 0.7011696899307919 0.7011696899307919 -0.12931408215934678
outer loop
vertex 24.805600000000002 24.8836 0.40240000000000004
vertex 24.8536 24.8536 0.5
vertex 24.8836 24.805600000000002 0.40240000000000004
endloop
endfacet
facet normal 0.772825058366535 0.6304625476148125 -0.07251486203394444
outer loop
vertex 24.8536 24.8536 0.5
vertex 24.9156 24.7776 0.5
vertex 24.8836 24.805600000000002 0.40240000000000004
endloop
endfacet
facet normal 0.8398507423684313 0.5285267602835693 -0.12373436954763015
outer loop
vertex 24.8836 24.805600000000002 0.40240000000000004
vertex 24.9156 24.7776 0.5
vertex 24.942 24.7128 0.40240000000000004
endloop
endfacet
facet normal 0.8784728030340286 0.47177243125901264 -0.07560626583489562
outer loop
vertex 24.9156 24.7776 0.5
vertex 24.962 24.691200000000002 0.5
vertex 24.942 24.7128 0.40240000000000004
endloop
endfacet
facet normal 0.9377640064678477 0.3258639404714648 -0.12004732597513437
outer loop
vertex 24.942 24.7128 0.40240000000000004
vertex 24.962 24.691200000000002 0.5
vertex 24.978 24.6092 0.40240000000000004
endloop
endfacet
facet normal 0.9533145664331267 0.2892535650288615 -0.08673933677699923
outer loop
vertex 24.962 24.691200000000002 0.5
vertex 24.9904 24.5976 0.5
vertex 24.978 24.6092 0.40240000000000004
endloop
endfacet
facet normal 0.9873498438067536 0.11211664893043158 -0.11211664893043151
outer loop
vertex 24.978 24.6092 0.40240000000000004
vertex 24.9904 24.5976 0.5
vertex 24.9904 24.5 0.40240000000000004
endloop
endfacet
facet normal 0.9904633582915201 0.09742262540571266 -0.0974226254057126
outer loop
vertex 24.9904 24.5976 0.5
vertex 25 24.5 0.5
vertex 24.9904 24.5 0.40240000000000004
endloop
endfacet
facet normal 0 -0.9951974108746767 -0.0978882699220886
outer loop
vertex 24.5 -25 0.5
vertex -24.5 -25 0.5
vertex -24.5 -24.9904 0.40240000000000004
endloop
endfacet
facet normal 0 -0.9951974108746767 -0.0978882699220886
outer loop
vertex 24.5 -25 0.5
vertex -24.5 -24.9904 0.40240000000000004
vertex 24.5 -24.9904 0.40240000000000004
endloop
endfacet
facet normal -0.9951974108746767 0 -0.0978882699220886
outer loop
vertex -25 -24.5 0.5
vertex -25 24.5 0.5
vertex -24.9904 24.5 0.40240000000000004
endloop
endfacet
facet normal -0.9951974108746767 0 -0.0978882699220886
outer loop
vertex -25 -24.5 0.5
vertex -24.9904 24.5 0.40240000000000004
vertex -24.9904 -24.5 0.40240000000000004
endloop
endfacet
facet normal 0 0.9951974108746767 -0.0978882699220886
outer loop
vertex -24.5 25 0.5
vertex 24.5 25 0.5
vertex 24.5 24.9904 0.40240000000000004
endloop
endfacet
facet normal 0 0.9951974108746767 -0.0978882699220886
outer loop
vertex -24.5 25 0.5
vertex 24.5 24.9904 0.40240000000000004
vertex -24.5 24.9904 0.40240000000000004
endloop
endfacet
facet normal 0.9951974108746767 0 -0.0978882699220886
outer loop
vertex 25 24.5 0.5
vertex 25 -24.5 0.5
vertex 24.9904 -24.5 0.40240000000000004
endloop
endfacet
facet normal 0.9951974108746767 0 -0.0978882699220886
outer loop
vertex 25 24.5 0.5
vertex 24.9904 -24.5 0.40240000000000004
vertex 24.9904 24.5 0.40240000000000004
endloop
endfacet
facet normal 0.9513213778880927 -0.1080255044488256 -0.2886487941455457
outer loop
vertex 24.9904 -24.5 0.40240000000000004
vertex 24.978 -24.6092 0.40240000000000004
vertex 24.962 -24.5 0.3088
endloop
endfacet
facet normal 0.9428776259864934 -0.12613747504834438 -0.30833605011821524
outer loop
vertex 24.962 -24.5 0.3088
vertex 24.978 -24.6092 0.40240000000000004
vertex 24.946 -24.619600000000002 0.3088
endloop
endfacet
facet normal 0.9080699349746095 -0.31554553724987583 -0.2753906445703912
outer loop
vertex 24.978 -24.6092 0.40240000000000004
vertex 24.942 -24.7128 0.40240000000000004
vertex 24.946 -24.619600000000002 0.3088
endloop
endfacet
facet normal 0.8745704499463557 -0.36178274008571715 -0.32286185444660326
outer loop
vertex 24.946 -24.619600000000002 0.3088
vertex 24.942 -24.7128 0.40240000000000004
vertex 24.900000000000002 -24.730800000000002 0.3088
endloop
endfacet
facet normal 0.8155682705009011 -0.5132455495393481 -0.2672590541594832
outer loop
vertex 24.942 -24.7128 0.40240000000000004
vertex 24.8836 -24.805600000000002 0.40240000000000004
vertex 24.900000000000002 -24.730800000000002 0.3088
endloop
endfacet
facet normal 0.7516716969094589 -0.5731496688934613 -0.3263267030332798
outer loop
vertex 24.900000000000002 -24.730800000000002 0.3088
vertex 24.8836 -24.805600000000002 0.40240000000000004
vertex 24.826800000000002 -24.826800000000002 0.3088
endloop
endfacet
facet normal 0.6828428708317722 -0.6828428708317722 -0.25971374147019477
outer loop
vertex 24.8836 -24.805600000000002 0.40240000000000004
vertex 24.805600000000002 -24.8836 0.40240000000000004
vertex 24.826800000000002 -24.826800000000002 0.3088
endloop
endfacet
facet normal 0.5731496688934613 -0.7516716969094589 -0.3263267030332798
outer loop
vertex 24.826800000000002 -24.826800000000002 0.3088
vertex 24.805600000000002 -24.8836 0.40240000000000004
vertex 24.730800000000002 -24.900000000000002 0.3088
endloop
endfacet
facet normal 0.5132455495393481 -0.8155682705009011 -0.26725905415948314
outer loop
vertex 24.805600000000002 -24.8836 0.40240000000000004
vertex 24.7128 -24.942 0.40240000000000004
vertex 24.730800000000002 -24.900000000000002 0.3088
endloop
endfacet
facet normal 0.36178274008571715 -0.8745704499463557 -0.32286185444660326
outer loop
vertex 24.730800000000002 -24.900000000000002 0.3088
vertex 24.7128 -24.942 0.40240000000000004
vertex 24.619600000000002 -24.946 0.3088
endloop
endfacet
facet normal 0.31554553724987583 -0.9080699349746095 -0.2753906445703912
outer loop
vertex 24.7128 -24.942 0.40240000000000004
vertex 24.6092 -24.978 0.40240000000000004
vertex 24.619600000000002 -24.946 0.3088
endloop
endfacet
facet normal 0.12613747504834438 -0.9428776259864934 -0.30833605011821524
outer loop
vertex 24.619600000000002 -24.946 0.3088
vertex 24.6092 -24.978 0.40240000000000004
vertex 24.5 -24.962 0.3088
endloop
endfacet
facet normal 0.1080255044488256 -0.9513213778880927 -0.2886487941455457
outer loop
vertex 24.6092 -24.978 0.40240000000000004
vertex 24.5 -24.9904 0.40240000000000004
vertex 24.5 -24.962 0.3088
endloop
endfacet
facet normal -0.1080255044488256 -0.9513213778880927 -0.2886487941455457
outer loop
vertex -24.5 -24.9904 0.40240000000000004
vertex -24.6092 -24.978 0.40240000000000004
vertex -24.5 -24.962 0.3088
endloop
endfacet
facet normal -0.12613747504834438 -0.9428776259864934 -0.30833605011821524
outer loop
vertex -24.5 -24.962 0.3088
vertex -24.6092 -24.978 0.40240000000000004
vertex -24.619600000000002 -24.946 0.3088
endloop
endfacet
facet normal -0.31554553724987583 -0.9080699349746095 -0.2753906445703912
outer loop
vertex -24.6092 -24.978 0.40240000000000004
vertex -24.7128 -24.942 0.40240000000000004
vertex -24.619600000000002 -24.946 0.3088
endloop
endfacet
facet normal -0.36178274008571715 -0.8745704499463557 -0.32286185444660326
outer loop
vertex -24.619600000000002 -24.946 0.3088
vertex -24.7128 -24.942 0.40240000000000004
vertex -24.730800000000002 -24.900000000000002 0.3088
endloop
endfacet
facet normal -0.5132455495393481 -0.8155682705009011 -0.2672590541594832
outer loop
vertex -24.7128 -24.942 0.40240000000000004
vertex -24.805600000000002 -24.8836 0.40240000000000004
vertex -24.730800000000002 -24.900000000000002 0.3088
endloop
endfacet
facet normal -0.5731496688934613 -0.7516716969094589 -0.3263267030332798
outer loop
vertex -24.730800000000002 -24.900000000000002 0.3088
vertex -24.805600000000002 -24.8836 0.40240000000000004
vertex -24.826800000000002 -24.826800000000002 0.3088
endloop
endfacet
facet normal -0.6828428708317722 -0.6828428708317722 -0.25971374147019477
outer loop
vertex -24.805600000000002 -24.8836 0.40240000000000004
vertex -24.8836 -24.805600000000002 0.40240000000000004
vertex -24.826800000000002 -24.826800000000002 0.3088
endloop
endfacet
facet normal -0.7516716969094589 -0.5731496688934613 -0.3263267030332798
outer loop
vertex -24.826800000000002 -24.826800000000002 0.3088
vertex -24.8836 -24.805600000000002 0.40240000000000004
vertex -24.900000000000002 -24.730800000000002 0.3088
endloop
endfacet
facet normal -0.8155682705009011 -0.5132455495393481 -0.26725905415948314
outer loop
vertex -24.8836 -24.805600000000002 0.40240000000000004
vertex -24.942 -24.7128 0.40240000000000004
vertex -24.900000000000002 -24.730800000000002 0.3088
endloop
endfacet
facet normal -0.8745704499463557 -0.36178274008571715 -0.32286185444660326
outer loop
vertex -24.900000000000002 -24.730800000000002 0.3088
vertex -24.942 -24.7128 0.40240000000000004
vertex -24.946 -24.619600000000002 0.3088
endloop
endfacet
facet normal -0.9080699349746095 -0.31554553724987583 -0.2753906445703912
outer loop
vertex -24.942 -24.7128 0.40240000000000004
vertex -24.978 -24.6092 0.40240000000000004
vertex -24.946 -24.619600000000002 0.3088
endloop
endfacet
facet normal -0.9428776259864934 -0.12613747504834438 -0.30833605011821524
outer loop
vertex -24.946 -24.619600000000002 0.3088
vertex -24.978 -24.6092 0.40240000000000004
vertex -24.962 -24.5 0.3088
endloop
endfacet
facet normal -0.9513213778880927 -0.1080255044488256 -0.2886487941455457
outer loop
vertex -24.978 -24.6092 0.40240000000000004
vertex -24.9904 -24.5 0.40240000000000004
vertex -24.962 -24.5 0.3088
endloop
endfacet
facet normal -0.9513213778880927 0.1080255044488256 -0.2886487941455457
outer loop
vertex -24.9904 24.5 0.40240000000000004
vertex -24.978 24.6092 0.40240000000000004
vertex -24.962 24.5 0.3088
endloop
endfacet
facet normal -0.9428776259864934 0.12613747504834438 -0.30833605011821524
outer loop
vertex -24.962 24.5 0.3088
vertex -24.978 24.6092 0.40240000000000004
vertex -24.946 24.619600000000002 0.3088
endloop
endfacet
facet normal -0.9080699349746095 0.31554553724987583 -0.2753906445703912
outer loop
vertex -24.978 24.6092 0.40240000000000004
vertex -24.942 24.7128 0.40240000000000004
vertex -24.946 24.619600000000002 0.3088
endloop
endfacet
facet normal -0.8745704499463557 0.36178274008571715 -0.32286185444660326
outer loop
vertex -24.946 24.619600000000002 0.3088
vertex -24.942 24.7128 0.40240000000000004
vertex -24.900000000000002 24.730800000000002 0.3088
endloop
endfacet
facet normal -0.8155682705009011 0.5132455495393481 -0.2672590541594832
outer loop
vertex -24.942 24.7128 0.40240000000000004
vertex -24.8836 24.805600000000002 0.40240000000000004
vertex -24.900000000000002 24.730800000000002 0.3088
endloop
endfacet
facet normal -0.7516716969094589 0.5731496688934613 -0.3263267030332798
outer loop
vertex -24.900000000000002 24.730800000000002 0.3088
vertex -24.8836 24.805600000000002 0.40240000000000004
vertex -24.826800000000002 24.826800000000002 0.3088
endloop
endfacet
facet normal -0.6828428708317722 0.6828428708317722 -0.25971374147019477
outer loop
vertex -24.8836 24.805600000000002 0.40240000000000004
vertex -24.805600000000002 24.8836 0.40240000000000004
vertex -24.826800000000002 24.826800000000002 0.3088
endloop
endfacet
facet normal -0.5731496688934613 0.7516716969094589 -0.3263267030332798
outer loop
vertex -24.826800000000002 24.826800000000002 0.3088
vertex -24.805600000000002 24.8836 0.40240000000000004
vertex -24.730800000000002 24.900000000000002 0.3088
endloop
endfacet
facet normal -0.5132455495393481 0.8155682705009011 -0.26725905415948314
outer loop
vertex -24.805600000000002 24.8836 0.40240000000000004
vertex -24.7128 24.942 0.40240000000000004
vertex -24.730800000000002 24.900000000000002 0.3088
endloop
endfacet
facet normal -0.36178274008571715 0.8745704499463557 -0.32286185444660326
outer loop
vertex -24.730800000000002 24.900000000000002 0.3088
vertex -24.7128 24.942 0.40240000000000004
vertex -24.619600000000002 24.946 0.3088
endloop
endfacet
facet normal -0.31554553724987583 0.9080699349746095 -0.2753906445703912
outer loop
vertex -24.7128 24.942 0.40240000000000004
vertex -24.6092 24.978 0.40240000000000004
vertex -24.619600000000002 24.946 0.3088
endloop
endfacet
facet normal -0.12613747504834438 0.9428776259864934 -0.30833605011821524
outer loop
vertex -24.619600000000002 24.946 0.3088
vertex -24.6092 24.978 0.40240000000000004
vertex -24.5 24.962 0.3088
endloop
endfacet
facet normal -0.1080255044488256 0.9513213778880927 -0.2886487941455457
outer loop
vertex -24.6092 24.978 0.40240000000000004
vertex -24.5 24.9904 0.40240000000000004
vertex -24.5 24.962 0.3088
endloop
endfacet
facet normal 0.1080255044488256 0.9513213778880927 -0.2886487941455457
outer loop
vertex 24.5 24.9904 0.40240000000000004
vertex 24.6092 24.978 0.40240000000000004
vertex 24.5 24.962 0.3088
endloop
endfacet
facet normal 0.12613747504834438 0.9428776259864934 -0.30833605011821524
outer loop
vertex 24.5 24.962 0.3088
vertex 24.6092 24.978 0.40240000000000004
vertex 24.619600000000002 24.946 0.3088
endloop
endfacet
facet normal 0.31554553724987583 0.9080699349746095 -0.2753906445703912
outer loop
vertex 24.6092 24.978 0.40240000000000004
vertex 24.7128 24.942 0.40240000000000004
vertex 24.619600000000002 24.946 0.3088
endloop
endfacet
facet normal 0.36178274008571715 0.8745704499463557 -0.32286185444660326
outer loop
vertex 24.619600000000002 24.946 0.3088
vertex 24.7128 24.942 0.40240000000000004
vertex 24.730800000000002 24.900000000000002 0.3088
endloop
endfacet
facet normal 0.5132455495393481 0.8155682705009011 -0.2672590541594832
outer loop
vertex 24.7128 24.942 0.40240000000000004
vertex 24.805600000000002 24.8836 0.40240000000000004
vertex 24.730800000000002 24.900000000000002 0.3088
endloop
endfacet
facet normal 0.5731496688934613 0.7516716969094589 -0.3263267030332798
outer loop
vertex 24.730800000000002 24.900000000000002 0.3088
vertex 24.805600000000002 24.8836 0.40240000000000004
vertex 24.826800000000002 24.826800000000002 0.3088
endloop
endfacet
facet normal 0.6828428708317722 0.6828428708317722 -0.25971374147019477
outer loop
vertex 24.805600000000002 24.8836 0.40240000000000004
vertex 24.8836 24.805600000000002 0.40240000000000004
vertex 24.826800000000002 24.826800000000002 0.3088
endloop
endfacet
facet normal 0.7516716969094589 0.5731496688934613 -0.3263267030332798
outer loop
vertex 24.826800000000002 24.826800000000002 0.3088
vertex 24.8836 24.805600000000002 0.40240000000000004
vertex 24.900000000000002 24.730800000000002 0.3088
endloop
endfacet
facet normal 0.8155682705009011 0.5132455495393481 -0.26725905415948314
outer loop
vertex 24.8836 24.805600000000002 0.40240000000000004
vertex 24.942 24.7128 0.40240000000000004
vertex 24.900000000000002 24.730800000000002 0.3088
endloop
endfacet
facet normal 0.8745704499463557 0.36178274008571715 -0.32286185444660326
outer loop
vertex 24.900000000000002 24.730800000000002 0.3088
vertex 24.942 24.7128 0.40240000000000004
vertex 24.946 24.619600000000002 0.3088
endloop
endfacet
facet normal 0.9080699349746095 0.31554553724987583 -0.2753906445703912
outer loop
vertex 24.942 24.7128 0.40240000000000004
vertex 24.978 24.6092 0.40240000000000004
vertex 24.946 24.619600000000002 0.3088
endloop
endfacet
facet normal 0.9428776259864934 0.12613747504834438 -0.30833605011821524
outer loop
vertex 24.946 24.619600000000002 0.3088
vertex 24.978 24.6092 0.40240000000000004
vertex 24.962 24.5 0.3088
endloop
endfacet
facet normal 0.9513213778880927 0.1080255044488256 -0.2886487941455457
outer loop
vertex 24.978 24.6092 0.40240000000000004
vertex 24.9904 24.5 0.40240000000000004
vertex 24.962 24.5 0.3088
endloop
endfacet
facet normal 0 -0.9569211628683985 -0.2903478742036727
outer loop
vertex 24.5 -24.9904 0.40240000000000004
vertex -24.5 -24.9904 0.40240000000000004
vertex -24.5 -24.962 0.3088
endloop
endfacet
facet normal 0 -0.9569211628683985 -0.2903478742036727
outer loop
vertex 24.5 -24.9904 0.40240000000000004
vertex -24.5 -24.962 0.3088
vertex 24.5 -24.962 0.3088
endloop
endfacet
facet normal -0.9569211628683985 0 -0.2903478742036727
outer loop
vertex -24.9904 -24.5 0.40240000000000004
vertex -24.9904 24.5 0.40240000000000004
vertex -24.962 24.5 0.3088
endloop
endfacet
facet normal -0.9569211628683985 0 -0.2903478742036727
outer loop
vertex -24.9904 -24.5 0.40240000000000004
vertex -24.962 24.5 0.3088
vertex -24.962 -24.5 0.3088
endloop
endfacet
facet normal 0 0.9569211628683985 -0.2903478742036727
outer loop
vertex -24.5 24.9904 0.40240000000000004
vertex 24.5 24.9904 0.40240000000000004
vertex 24.5 24.962 0.3088
endloop
endfacet
facet normal 0 0.9569211628683985 -0.2903478742036727
outer loop
vertex -24.5 24.9904 0.40240000000000004
vertex 24.5 24.962 0.3088
vertex -24.5 24.962 0.3088
endloop
endfacet
facet normal 0.9569211628683985 0 -0.2903478742036727
outer loop
vertex 24.9904 24.5 0.40240000000000004
vertex 24.9904 -24.5 0.40240000000000004
vertex 24.962 -24.5 0.3088
endloop
endfacet
facet normal 0.9569211628683985 0 -0.2903478742036727
outer loop
vertex 24.9904 24.5 0.40240000000000004
vertex 24.962 -24.5 0.3088
vertex 24.962 24.5 0.3088
endloop
endfacet
facet normal 0.8749386343425712 -0.11704864673477734 -0.4698744517765502
outer loop
vertex 24.962 -24.5 0.3088
vertex 24.946 -24.619600000000002 0.3088
vertex 24.9156 -24.5 0.22240000000000001
endloop
endfacet
facet normal 0.8599702461138454 -0.13663078676573912 -0.49171455531300623
outer loop
vertex 24.9156 -24.5 0.22240000000000001
vertex 24.946 -24.619600000000002 0.3088
vertex 24.895200000000003 -24.628400000000003 0.22240000000000001
endloop
endfacet
facet normal 0.8250520422434321 -0.341298506683429 -0.4503381584160989
outer loop
vertex 24.946 -24.619600000000002 0.3088
vertex 24.900000000000002 -24.730800000000002 0.3088
vertex 24.895200000000003 -24.628400000000003 0.22240000000000001
endloop
endfacet
facet normal 0.7697541817582146 -0.39018574040848547 -0.5052064802114317
outer loop
vertex 24.895200000000003 -24.628400000000003 0.22240000000000001
vertex 24.900000000000002 -24.730800000000002 0.3088
vertex 24.8364 -24.744400000000002 0.22240000000000001
endloop
endfacet
facet normal 0.7141089162259691 -0.5445080486223004 -0.439953907531353
outer loop
vertex 24.900000000000002 -24.730800000000002 0.3088
vertex 24.826800000000002 -24.826800000000002 0.3088
vertex 24.8364 -24.744400000000002 0.22240000000000001
endloop
endfacet
facet normal 0.6074609671411132 -0.6074609671411132 -0.5118421112022402
outer loop
vertex 24.8364 -24.744400000000002 0.22240000000000001
vertex 24.826800000000002 -24.826800000000002 0.3088
vertex 24.744400000000002 -24.8364 0.22240000000000001
endloop
endfacet
facet normal 0.5445080486223004 -0.7141089162259691 -0.439953907531353
outer loop
vertex 24.826800000000002 -24.826800000000002 0.3088
vertex 24.730800000000002 -24.900000000000002 0.3088
vertex 24.744400000000002 -24.8364 0.22240000000000001
endloop
endfacet
facet normal 0.39018574040848547 -0.7697541817582146 -0.5052064802114317
outer loop
vertex 24.744400000000002 -24.8364 0.22240000000000001
vertex 24.730800000000002 -24.900000000000002 0.3088
vertex 24.628400000000003 -24.895200000000003 0.22240000000000001
endloop
endfacet
facet normal 0.341298506683429 -0.8250520422434321 -0.4503381584160989
outer loop
vertex 24.730800000000002 -24.900000000000002 0.3088
vertex 24.619600000000002 -24.946 0.3088
vertex 24.628400000000003 -24.895200000000003 0.22240000000000001
endloop
endfacet
facet normal 0.13663078676573912 -0.8599702461138454 -0.49171455531300623
outer loop
vertex 24.628400000000003 -24.895200000000003 0.22240000000000001
vertex 24.619600000000002 -24.946 0.3088
vertex 24.5 -24.9156 0.22240000000000001
endloop
endfacet
facet normal 0.11704864673477734 -0.8749386343425712 -0.46987445177655024
outer loop
vertex 24.619600000000002 -24.946 0.3088
vertex 24.5 -24.962 0.3088
vertex 24.5 -24.9156 0.22240000000000001
endloop
endfacet
facet normal -0.11704864673477734 -0.8749386343425712 -0.4698744517765502
outer loop
vertex -24.5 -24.962 0.3088
vertex -24.619600000000002 -24.946 0.3088
vertex -24.5 -24.9156 0.22240000000000001
endloop
endfacet
facet normal -0.13663078676573912 -0.8599702461138454 -0.49171455531300623
outer loop
vertex -24.5 -24.9156 0.22240000000000001
vertex -24.619600000000002 -24.946 0.3088
vertex -24.628400000000003 -24.895200000000003 0.22240000000000001
endloop
endfacet
facet normal -0.341298506683429 -0.8250520422434321 -0.4503381584160989
outer loop
vertex -24.619600000000002 -24.946 0.3088
vertex -24.730800000000002 -24.900000000000002 0.3088
vertex -24.628400000000003 -24.895200000000003 0.22240000000000001
endloop
endfacet
facet normal -0.39018574040848547 -0.7697541817582146 -0.5052064802114317
outer loop
vertex -24.628400000000003 -24.895200000000003 0.22240000000000001
vertex -24.730800000000002 -24.900000000000002 0.3088
vertex -24.744400000000002 -24.8364 0.22240000000000001
endloop
endfacet
facet normal -0.5445080486223004 -0.7141089162259691 -0.439953907531353
outer loop
vertex -24.730800000000002 -24.900000000000002 0.3088
vertex -24.826800000000002 -24.826800000000002 0.3088
vertex -24.744400000000002 -24.8364 0.22240000000000001
endloop
endfacet
facet normal -0.6074609671411132 -0.6074609671411132 -0.5118421112022402
outer loop
vertex -24.744400000000002 -24.8364 0.22240000000000001
vertex -24.826800000000002 -24.826800000000002 0.3088
vertex -24.8364 -24.744400000000002 0.22240000000000001
endloop
endfacet
facet normal -0.7141089162259691 -0.5445080486223004 -0.439953907531353
outer loop
vertex -24.826800000000002 -24.826800000000002 0.3088
vertex -24.900000000000002 -24.730800000000002 0.3088
vertex -24.8364 -24.744400000000002 0.22240000000000001
endloop
endfacet
facet normal -0.7697541817582146 -0.39018574040848547 -0.5052064802114317
outer loop
vertex -24.8364 -24.744400000000002 0.22240000000000001
vertex -24.900000000000002 -24.730800000000002 0.3088
vertex -24.895200000000003 -24.628400000000003 0.22240000000000001
endloop
endfacet
facet normal -0.8250520422434321 -0.341298506683429 -0.4503381584160989
outer loop
vertex -24.900000000000002 -24.730800000000002 0.3088
vertex -24.946 -24.619600000000002 0.3088
vertex -24.895200000000003 -24.628400000000003 0.22240000000000001
endloop
endfacet
facet normal -0.8599702461138454 -0.13663078676573912 -0.49171455531300623
outer loop
vertex -24.895200000000003 -24.628400000000003 0.22240000000000001
vertex -24.946 -24.619600000000002 0.3088
vertex -24.9156 -24.5 0.22240000000000001
endloop
endfacet
facet normal -0.8749386343425712 -0.11704864673477734 -0.46987445177655024
outer loop
vertex -24.946 -24.619600000000002 0.3088
vertex -24.962 -24.5 0.3088
vertex -24.9156 -24.5 0.22240000000000001
endloop
endfacet
facet normal -0.8749386343425712 0.11704864673477734 -0.4698744517765502
outer loop
vertex -24.962 24.5 0.3088
vertex -24.946 24.619600000000002 0.3088
vertex -24.9156 24.5 0.22240000000000001
endloop
endfacet
facet normal -0.8599702461138454 0.13663078676573912 -0.49171455531300623
outer loop
vertex -24.9156 24.5 0.22240000000000001
vertex -24.946 24.619600000000002 0.3088
vertex -24.895200000000003 24.628400000000003 0.22240000000000001
endloop
endfacet
facet normal -0.8250520422434321 0.341298506683429 -0.4503381584160989
outer loop
vertex -24.946 24.619600000000002 0.3088
vertex -24.900000000000002 24.730800000000002 0.3088
vertex -24.895200000000003 24.628400000000003 0.22240000000000001
endloop
endfacet
facet normal -0.7697541817582146 0.39018574040848547 -0.5052064802114317
outer loop
vertex -24.895200000000003 24.628400000000003 0.22240000000000001
vertex -24.900000000000002 24.730800000000002 0.3088
vertex -24.8364 24.744400000000002 0.22240000000000001
endloop
endfacet
facet normal -0.7141089162259691 0.5445080486223004 -0.439953907531353
outer loop
vertex -24.900000000000002 24.730800000000002 0.3088
vertex -24.826800000000002 24.826800000000002 0.3088
vertex -24.8364 24.744400000000002 0.22240000000000001
endloop
endfacet
facet normal -0.6074609671411132 0.6074609671411132 -0.5118421112022402
outer loop
vertex -24.8364 24.744400000000002 0.22240000000000001
vertex -24.826800000000002 24.826800000000002 0.3088
vertex -24.744400000000002 24.8364 0.22240000000000001
endloop
endfacet
facet normal -0.5445080486223004 0.7141089162259691 -0.439953907531353
outer loop
vertex -24.826800000000002 24.826800000000002 0.3088
vertex -24.730800000000002 24.900000000000002 0.3088
vertex -24.744400000000002 24.8364 0.22240000000000001
endloop
endfacet
facet normal -0.39018574040848547 0.7697541817582146 -0.5052064802114317
outer loop
vertex -24.744400000000002 24.8364 0.22240000000000001
vertex -24.730800000000002 24.900000000000002 0.3088
vertex -24.628400000000003 24.895200000000003 0.22240000000000001
endloop
endfacet
facet normal -0.341298506683429 0.8250520422434321 -0.4503381584160989
outer loop
vertex -24.730800000000002 24.900000000000002 0.3088
vertex -24.619600000000002 24.946 0.3088
vertex -24.628400000000003 24.895200000000003 0.22240000000000001
endloop
endfacet
facet normal -0.13663078676573912 0.8599702461138454 -0.49171455531300623
outer loop
vertex -24.628400000000003 24.895200000000003 0.22240000000000001
vertex -24.619600000000002 24.946 0.3088
vertex -24.5 24.9156 0.22240000000000001
endloop
endfacet
facet normal -0.11704864673477734 0.8749386343425712 -0.46987445177655024
outer loop
vertex -24.619600000000002 24.946 0.3088
vertex -24.5 24.962 0.3088
vertex -24.5 24.9156 0.22240000000000001
endloop
endfacet
facet normal 0.11704864673477734 0.8749386343425712 -0.4698744517765502
outer loop
vertex 24.5 24.962 0.3088
vertex 24.619600000000002 24.946 0.3088
vertex 24.5 24.9156 0.22240000000000001
endloop
endfacet
facet normal 0.13663078676573912 0.8599702461138454 -0.49171455531300623
outer loop
vertex 24.5 24.9156 0.22240000000000001
vertex 24.619600000000002 24.946 0.3088
vertex 24.628400000000003 24.895200000000003 0.22240000000000001
endloop
endfacet
facet normal 0.341298506683429 0.8250520422434321 -0.4503381584160989
outer loop
vertex 24.619600000000002 24.946 0.3088
vertex 24.730800000000002 24.900000000000002 0.3088
vertex 24.628400000000003 24.895200000000003 0.22240000000000001
endloop
endfacet
facet normal 0.39018574040848547 0.7697541817582146 -0.5052064802114317
outer loop
vertex 24.628400000000003 24.895200000000003 0.22240000000000001
vertex 24.730800000000002 24.900000000000002 0.3088
vertex 24.744400000000002 24.8364 0.22240000000000001
endloop
endfacet
facet normal 0.5445080486223004 0.7141089162259691 -0.439953907531353
outer loop
vertex 24.730800000000002 24.900000000000002 0.3088
vertex 24.826800000000002 24.826800000000002 0.3088
vertex 24.744400000000002 24.8364 0.22240000000000001
endloop
endfacet
facet normal 0.6074609671411132 0.6074609671411132 -0.5118421112022402
outer loop
vertex 24.744400000000002 24.8364 0.22240000000000001
vertex 24.826800000000002 24.826800000000002 0.3088
vertex 24.8364 24.744400000000002 0.22240000000000001
endloop
endfacet
facet normal 0.7141089162259691 0.5445080486223004 -0.439953907531353
outer loop
vertex 24.826800000000002 24.826800000000002 0.3088
vertex 24.900000000000002 24.730800000000002 0.3088
vertex 24.8364 24.744400000000002 0.22240000000000001
endloop
endfacet
facet normal 0.7697541817582146 0.39018574040848547 -0.5052064802114317
outer loop
vertex 24.8364 24.744400000000002 0.22240000000000001
vertex 24.900000000000002 24.730800000000002 0.3088
vertex 24.895200000000003 24.628400000000003 0.22240000000000001
endloop
endfacet
facet normal 0.8250520422434321 0.341298506683429 -0.4503381584160989
outer loop
vertex 24.900000000000002 24.730800000000002 0.3088
vertex 24.946 24.619600000000002 0.3088
vertex 24.895200000000003 24.628400000000003 0.22240000000000001
endloop
endfacet
facet normal 0.8599702461138454 0.13663078676573912 -0.49171455531300623
outer loop
vertex 24.895200000000003 24.628400000000003 0.22240000000000001
vertex 24.946 24.619600000000002 0.3088
vertex 24.9156 24.5 0.22240000000000001
endloop
endfacet
facet normal 0.8749386343425712 0.11704864673477734 -0.46987445177655024
outer loop
vertex 24.946 24.619600000000002 0.3088
vertex 24.962 24.5 0.3088
vertex 24.9156 24.5 0.22240000000000001
endloop
endfacet
facet normal 0 -0.8809944292988998 -0.4731266379568007
outer loop
vertex 24.5 -24.962 0.3088
vertex -24.5 -24.962 0.3088
vertex -24.5 -24.9156 0.22240000000000001
endloop
endfacet
facet normal 0 -0.8809944292988998 -0.4731266379568007
outer loop
vertex 24.5 -24.962 0.3088
vertex -24.5 -24.9156 0.22240000000000001
vertex 24.5 -24.9156 0.22240000000000001
endloop
endfacet
facet normal -0.8809944292988998 0 -0.4731266379568007
outer loop
vertex -24.962 -24.5 0.3088
vertex -24.962 24.5 0.3088
vertex -24.9156 24.5 0.22240000000000001
endloop
endfacet
facet normal -0.8809944292988998 0 -0.4731266379568007
outer loop
vertex -24.962 -24.5 0.3088
vertex -24.9156 24.5 0.22240000000000001
vertex -24.9156 -24.5 0.22240000000000001
endloop
endfacet
facet normal 0 0.8809944292988998 -0.4731266379568007
outer loop
vertex -24.5 24.962 0.3088
vertex 24.5 24.962 0.3088
vertex 24.5 24.9156 0.22240000000000001
endloop
endfacet
facet normal 0 0.8809944292988998 -0.4731266379568007
outer loop
vertex -24.5 24.962 0.3088
vertex 24.5 24.9156 0.22240000000000001
vertex -24.5 24.9156 0.22240000000000001
endloop
endfacet
facet normal 0.8809944292988998 0 -0.4731266379568007
outer loop
vertex 24.962 24.5 0.3088
vertex 24.962 -24.5 0.3088
vertex 24.9156 -24.5 0.22240000000000001
endloop
endfacet
facet normal 0.8809944292988998 0 -0.4731266379568007
outer loop
vertex 24.962 24.5 0.3088
vertex 24.9156 -24.5 0.22240000000000001
vertex 24.9156 24.5 0.22240000000000001
endloop
endfacet
facet normal 0.7690590369026862 -0.1221869497882665 -0.6273902669469399
outer loop
vertex 24.9156 -24.5 0.22240000000000001
vertex 24.895200000000003 -24.628400000000003 0.22240000000000001
vertex 24.8536 -24.5 0.1464
endloop
endfacet
facet normal 0.7417215972008756 -0.1470276538830013 -0.6543943316070534
outer loop
vertex 24.8536 -24.5 0.1464
vertex 24.895200000000003 -24.628400000000003 0.22240000000000001
vertex 24.826800000000002 -24.6352 0.1464
endloop
endfacet
facet normal 0.709351160218023 -0.3595676570760427 -0.606244201194692
outer loop
vertex 24.895200000000003 -24.628400000000003 0.22240000000000001
vertex 24.8364 -24.744400000000002 0.22240000000000001
vertex 24.826800000000002 -24.6352 0.1464
endloop
endfacet
facet normal 0.6165903162692771 -0.4124924763892185 -0.6705716507616789
outer loop
vertex 24.826800000000002 -24.6352 0.1464
vertex 24.8364 -24.744400000000002 0.22240000000000001
vertex 24.75 -24.75 0.1464
endloop
endfacet
facet normal 0.5652059078874231 -0.5652059078874231 -0.6009031231224444
outer loop
vertex 24.8364 -24.744400000000002 0.22240000000000001
vertex 24.744400000000002 -24.8364 0.22240000000000001
vertex 24.75 -24.75 0.1464
endloop
endfacet
facet normal 0.4124924763892185 -0.6165903162692771 -0.6705716507616789
outer loop
vertex 24.75 -24.75 0.1464
vertex 24.744400000000002 -24.8364 0.22240000000000001
vertex 24.6352 -24.826800000000002 0.1464
endloop
endfacet
facet normal 0.3595676570760427 -0.709351160218023 -0.6062442011946919
outer loop
vertex 24.744400000000002 -24.8364 0.22240000000000001
vertex 24.628400000000003 -24.895200000000003 0.22240000000000001
vertex 24.6352 -24.826800000000002 0.1464
endloop
endfacet
facet normal 0.1470276538830013 -0.7417215972008756 -0.6543943316070533
outer loop
vertex 24.6352 -24.826800000000002 0.1464
vertex 24.628400000000003 -24.895200000000003 0.22240000000000001
vertex 24.5 -24.8536 0.1464
endloop
endfacet
facet normal 0.1221869497882665 -0.7690590369026862 -0.6273902669469399
outer loop
vertex 24.628400000000003 -24.895200000000003 0.22240000000000001
vertex 24.5 -24.9156 0.22240000000000001
vertex 24.5 -24.8536 0.1464
endloop
endfacet
facet normal -0.1221869497882665 -0.7690590369026862 -0.6273902669469399
outer loop
vertex -24.5 -24.9156 0.22240000000000001
vertex -24.628400000000003 -24.895200000000003 0.22240000000000001
vertex -24.5 -24.8536 0.1464
endloop
endfacet
facet normal -0.1470276538830013 -0.7417215972008756 -0.6543943316070534
outer loop
vertex -24.5 -24.8536 0.1464
vertex -24.628400000000003 -24.895200000000003 0.22240000000000001
vertex -24.6352 -24.826800000000002 0.1464
endloop
endfacet
facet normal -0.3595676570760427 -0.709351160218023 -0.606244201194692
outer loop
vertex -24.628400000000003 -24.895200000000003 0.22240000000000001
vertex -24.744400000000002 -24.8364 0.22240000000000001
vertex -24.6352 -24.826800000000002 0.1464
endloop
endfacet
facet normal -0.4124924763892185 -0.6165903162692771 -0.6705716507616789
outer loop
vertex -24.6352 -24.826800000000002 0.1464
vertex -24.744400000000002 -24.8364 0.22240000000000001
vertex -24.75 -24.75 0.1464
endloop
endfacet
facet normal -0.5652059078874231 -0.5652059078874231 -0.6009031231224444
outer loop
vertex -24.744400000000002 -24.8364 0.22240000000000001
vertex -24.8364 -24.744400000000002 0.22240000000000001
vertex -24.75 -24.75 0.1464
endloop
endfacet
facet normal -0.6165903162692771 -0.4124924763892185 -0.6705716507616789
outer loop
vertex -24.75 -24.75 0.1464
vertex -24.8364 -24.744400000000002 0.22240000000000001
vertex -24.826800000000002 -24.6352 0.1464
endloop
endfacet
facet normal -0.709351160218023 -0.3595676570760427 -0.6062442011946919
outer loop
vertex -24.8364 -24.744400000000002 0.22240000000000001
vertex -24.895200000000003 -24.628400000000003 0.22240000000000001
vertex -24.826800000000002 -24.6352 0.1464
endloop
endfacet
facet normal -0.7417215972008756 -0.1470276538830013 -0.6543943316070533
outer loop
vertex -24.826800000000002 -24.6352 0.1464
vertex -24.895200000000003 -24.628400000000003 0.22240000000000001
vertex -24.8536 -24.5 0.1464
endloop
endfacet
facet normal -0.7690590369026862 -0.1221869497882665 -0.6273902669469399
outer loop
vertex -24.895200000000003 -24.628400000000003 0.22240000000000001
vertex -24.9156 -24.5 0.22240000000000001
vertex -24.8536 -24.5 0.1464
endloop
endfacet
facet normal -0.7690590369026862 0.1221869497882665 -0.6273902669469399
outer loop
vertex -24.9156 24.5 0.22240000000000001
vertex -24.895200000000003 24.628400000000003 0.22240000000000001
vertex -24.8536 24.5 0.1464
endloop
endfacet
facet normal -0.7417215972008756 0.1470276538830013 -0.6543943316070534
outer loop
vertex -24.8536 24.5 0.1464
vertex -24.895200000000003 24.628400000000003 0.22240000000000001
vertex -24.826800000000002 24.6352 0.1464
endloop
endfacet
facet normal -0.709351160218023 0.3595676570760427 -0.606244201194692
outer loop
vertex -24.895200000000003 24.628400000000003 0.22240000000000001
vertex -24.8364 24.744400000000002 0.22240000000000001
vertex -24.826800000000002 24.6352 0.1464
endloop
endfacet
facet normal -0.6165903162692771 0.4124924763892185 -0.6705716507616789
outer loop
vertex -24.826800000000002 24.6352 0.1464
vertex -24.8364 24.744400000000002 0.22240000000000001
vertex -24.75 24.75 0.1464
endloop
endfacet
facet normal -0.5652059078874231 0.5652059078874231 -0.6009031231224444
outer loop
vertex -24.8364 24.744400000000002 0.22240000000000001
vertex -24.744400000000002 24.8364 0.22240000000000001
vertex -24.75 24.75 0.1464
endloop
endfacet
facet normal -0.4124924763892185 0.6165903162692771 -0.6705716507616789
outer loop
vertex -24.75 24.75 0.1464
vertex -24.744400000000002 24.8364 0.22240000000000001
vertex -24.6352 24.826800000000002 0.1464
endloop
endfacet
facet normal -0.3595676570760427 0.709351160218023 -0.6062442011946919
outer loop
vertex -24.744400000000002 24.8364 0.22240000000000001
vertex -24.628400000000003 24.895200000000003 0.22240000000000001
vertex -24.6352 24.826800000000002 0.1464
endloop
endfacet
facet normal -0.1470276538830013 0.7417215972008756 -0.6543943316070533
outer loop
vertex -24.6352 24.826800000000002 0.1464
vertex -24.628400000000003 24.895200000000003 0.22240000000000001
vertex -24.5 24.8536 0.1464
endloop
endfacet
facet normal -0.1221869497882665 0.7690590369026862 -0.6273902669469399
outer loop
vertex -24.628400000000003 24.895200000000003 0.22240000000000001
vertex -24.5 24.9156 0.22240000000000001
vertex -24.5 24.8536 0.1464
endloop
endfacet
facet normal 0.1221869497882665 0.7690590369026862 -0.6273902669469399
outer loop
vertex 24.5 24.9156 0.22240000000000001
vertex 24.628400000000003 24.895200000000003 0.22240000000000001
vertex 24.5 24.8536 0.1464
endloop
endfacet
facet normal 0.1470276538830013 0.7417215972008756 -0.6543943316070534
outer loop
vertex 24.5 24.8536 0.1464
vertex 24.628400000000003 24.895200000000003 0.22240000000000001
vertex 24.6352 24.826800000000002 0.1464
endloop
endfacet
facet normal 0.3595676570760427 0.709351160218023 -0.606244201194692
outer loop
vertex 24.628400000000003 24.895200000000003 0.22240000000000001
vertex 24.744400000000002 24.8364 0.22240000000000001
vertex 24.6352 24.826800000000002 0.1464
endloop
endfacet
facet normal 0.4124924763892185 0.6165903162692771 -0.6705716507616789
outer loop
vertex 24.6352 24.826800000000002 0.1464
vertex 24.744400000000002 24.8364 0.22240000000000001
vertex 24.75 24.75 0.1464
endloop
endfacet
facet normal 0.5652059078874231 0.5652059078874231 -0.6009031231224444
outer loop
vertex 24.744400000000002 24.8364 0.22240000000000001
vertex 24.8364 24.744400000000002 0.22240000000000001
vertex 24.75 24.75 0.1464
endloop
endfacet
facet normal 0.6165903162692771 0.4124924763892185 -0.6705716507616789
outer loop
vertex 24.75 24.75 0.1464
vertex 24.8364 24.744400000000002 0.22240000000000001
vertex 24.826800000000002 24.6352 0.1464
endloop
endfacet
facet normal 0.709351160218023 0.3595676570760427 -0.6062442011946919
outer loop
vertex 24.8364 24.744400000000002 0.22240000000000001
vertex 24.895200000000003 24.628400000000003 0.22240000000000001
vertex 24.826800000000002 24.6352 0.1464
endloop
endfacet
facet normal 0.7417215972008756 0.1470276538830013 -0.6543943316070533
outer loop
vertex 24.826800000000002 24.6352 0.1464
vertex 24.895200000000003 24.628400000000003 0.22240000000000001
vertex 24.8536 24.5 0.1464
endloop
endfacet
facet normal 0.7690590369026862 0.1221869497882665 -0.6273902669469399
outer loop
vertex 24.895200000000003 24.628400000000003 0.22240000000000001
vertex 24.9156 24.5 0.22240000000000001
vertex 24.8536 24.5 0.1464
endloop
endfacet
facet normal 0 -0.7748650207718705 -0.6321267274718009
outer loop
vertex 24.5 -24.9156 0.22240000000000001
vertex -24.5 -24.9156 0.22240000000000001
vertex -24.5 -24.8536 0.1464
endloop
endfacet
facet normal 0 -0.7748650207718705 -0.6321267274718009
outer loop
vertex 24.5 -24.9156 0.22240000000000001
vertex -24.5 -24.8536 0.1464
vertex 24.5 -24.8536 0.1464
endloop
endfacet
facet normal -0.7748650207718705 0 -0.6321267274718009
outer loop
vertex -24.9156 -24.5 0.22240000000000001
vertex -24.9156 24.5 0.22240000000000001
vertex -24.8536 24.5 0.1464
endloop
endfacet
facet normal -0.7748650207718705 0 -0.6321267274718009
outer loop
vertex -24.9156 -24.5 0.22240000000000001
vertex -24.8536 24.5 0.1464
vertex -24.8536 -24.5 0.1464
endloop
endfacet
facet normal 0 0.7748650207718705 -0.6321267274718009
outer loop
vertex -24.5 24.9156 0.22240000000000001
vertex 24.5 24.9156 0.22240000000000001
vertex 24.5 24.8536 0.1464
endloop
endfacet
facet normal 0 0.7748650207718705 -0.6321267274718009
outer loop
vertex -24.5 24.9156 0.22240000000000001
vertex 24.5 24.8536 0.1464
vertex -24.5 24.8536 0.1464
endloop
endfacet
facet normal 0.7748650207718705 0 -0.6321267274718009
outer loop
vertex 24.9156 24.5 0.22240000000000001
vertex 24.9156 -24.5 0.22240000000000001
vertex 24.8536 -24.5 0.1464
endloop
endfacet
facet normal 0.7748650207718705 0 -0.6321267274718009
outer loop
vertex 24.9156 24.5 0.22240000000000001
vertex 24.8536 -24.5 0.1464
vertex 24.8536 24.5 0.1464
endloop
endfacet
facet normal 0.6272219309154673 -0.12433097447139863 -0.7688526895092876
outer loop
vertex 24.8536 -24.5 0.1464
vertex 24.826800000000002 -24.6352 0.1464
vertex 24.7776 -24.5 0.0844
endloop
endfacet
facet normal 0.5801927527753596 -0.15549834584468716 -0.7994977386250173
outer loop
vertex 24.7776 -24.5 0.0844
vertex 24.826800000000002 -24.6352 0.1464
vertex 24.7404 -24.6388 0.0844
endloop
endfacet
facet normal 0.5519246690157547 -0.3692318343241427 -0.7476944645063774
outer loop
vertex 24.826800000000002 -24.6352 0.1464
vertex 24.75 -24.75 0.1464
vertex 24.7404 -24.6388 0.0844
endloop
endfacet
facet normal 0.4153630489530226 -0.4153630489530226 -0.8092880050568512
outer loop
vertex 24.7404 -24.6388 0.0844
vertex 24.75 -24.75 0.1464
vertex 24.6388 -24.7404 0.0844
endloop
endfacet
facet normal 0.36923183432414275 -0.5519246690157548 -0.7476944645063774
outer loop
vertex 24.75 -24.75 0.1464
vertex 24.6352 -24.826800000000002 0.1464
vertex 24.6388 -24.7404 0.0844
endloop
endfacet
facet normal 0.15549834584468716 -0.5801927527753596 -0.7994977386250173
outer loop
vertex 24.6388 -24.7404 0.0844
vertex 24.6352 -24.826800000000002 0.1464
vertex 24.5 -24.7776 0.0844
endloop
endfacet
facet normal 0.12433097447139863 -0.6272219309154673 -0.7688526895092876
outer loop
vertex 24.6352 -24.826800000000002 0.1464
vertex 24.5 -24.8536 0.1464
vertex 24.5 -24.7776 0.0844
endloop
endfacet
facet normal -0.12433097447139863 -0.6272219309154673 -0.7688526895092876
outer loop
vertex -24.5 -24.8536 0.1464
vertex -24.6352 -24.826800000000002 0.1464
vertex -24.5 -24.7776 0.0844
endloop
endfacet
facet normal -0.15549834584468716 -0.5801927527753596 -0.7994977386250173
outer loop
vertex -24.5 -24.7776 0.0844
vertex -24.6352 -24.826800000000002 0.1464
vertex -24.6388 -24.7404 0.0844
endloop
endfacet
facet normal -0.3692318343241427 -0.5519246690157547 -0.7476944645063774
outer loop
vertex -24.6352 -24.826800000000002 0.1464
vertex -24.75 -24.75 0.1464
vertex -24.6388 -24.7404 0.0844
endloop
endfacet
facet normal -0.4153630489530226 -0.4153630489530226 -0.8092880050568512
outer loop
vertex -24.6388 -24.7404 0.0844
vertex -24.75 -24.75 0.1464
vertex -24.7404 -24.6388 0.0844
endloop
endfacet
facet normal -0.5519246690157548 -0.36923183432414275 -0.7476944645063774
outer loop
vertex -24.75 -24.75 0.1464
vertex -24.826800000000002 -24.6352 0.1464
vertex -24.7404 -24.6388 0.0844
endloop
endfacet
facet normal -0.5801927527753596 -0.15549834584468716 -0.7994977386250173
outer loop
vertex -24.7404 -24.6388 0.0844
vertex -24.826800000000002 -24.6352 0.1464
vertex -24.7776 -24.5 0.0844
endloop
endfacet
facet normal -0.6272219309154673 -0.12433097447139863 -0.7688526895092876
outer loop
vertex -24.826800000000002 -24.6352 0.1464
vertex -24.8536 -24.5 0.1464
vertex -24.7776 -24.5 0.0844
endloop
endfacet
facet normal -0.6272219309154673 0.12433097447139863 -0.7688526895092876
outer loop
vertex -24.8536 24.5 0.1464
vertex -24.826800000000002 24.6352 0.1464
vertex -24.7776 24.5 0.0844
endloop
endfacet
facet normal -0.5801927527753596 0.15549834584468716 -0.7994977386250173
outer loop
vertex -24.7776 24.5 0.0844
vertex -24.826800000000002 24.6352 0.1464
vertex -24.7404 24.6388 0.0844
endloop
endfacet
facet normal -0.5519246690157547 0.3692318343241427 -0.7476944645063774
outer loop
vertex -24.826800000000002 24.6352 0.1464
vertex -24.75 24.75 0.1464
vertex -24.7404 24.6388 0.0844
endloop
endfacet
facet normal -0.4153630489530226 0.4153630489530226 -0.8092880050568512
outer loop
vertex -24.7404 24.6388 0.0844
vertex -24.75 24.75 0.1464
vertex -24.6388 24.7404 0.0844
endloop
endfacet
facet normal -0.36923183432414275 0.5519246690157548 -0.7476944645063774
outer loop
vertex -24.75 24.75 0.1464
vertex -24.6352 24.826800000000002 0.1464
vertex -24.6388 24.7404 0.0844
endloop
endfacet
facet normal -0.15549834584468716 0.5801927527753596 -0.7994977386250173
outer loop
vertex -24.6388 24.7404 0.0844
vertex -24.6352 24.826800000000002 0.1464
vertex -24.5 24.7776 0.0844
endloop
endfacet
facet normal -0.12433097447139863 0.6272219309154673 -0.7688526895092876
outer loop
vertex -24.6352 24.826800000000002 0.1464
vertex -24.5 24.8536 0.1464
vertex -24.5 24.7776 0.0844
endloop
endfacet
facet normal 0.12433097447139863 0.6272219309154673 -0.7688526895092876
outer loop
vertex 24.5 24.8536 0.1464
vertex 24.6352 24.826800000000002 0.1464
vertex 24.5 24.7776 0.0844
endloop
endfacet
facet normal 0.15549834584468716 0.5801927527753596 -0.7994977386250173
outer loop
vertex 24.5 24.7776 0.0844
vertex 24.6352 24.826800000000002 0.1464
vertex 24.6388 24.7404 0.0844
endloop
endfacet
facet normal 0.3692318343241427 0.5519246690157547 -0.7476944645063774
outer loop
vertex 24.6352 24.826800000000002 0.1464
vertex 24.75 24.75 0.1464
vertex 24.6388 24.7404 0.0844
endloop
endfacet
facet normal 0.4153630489530226 0.4153630489530226 -0.8092880050568512
outer loop
vertex 24.6388 24.7404 0.0844
vertex 24.75 24.75 0.1464
vertex 24.7404 24.6388 0.0844
endloop
endfacet
facet normal 0.5519246690157548 0.36923183432414275 -0.7476944645063774
outer loop
vertex 24.75 24.75 0.1464
vertex 24.826800000000002 24.6352 0.1464
vertex 24.7404 24.6388 0.0844
endloop
endfacet
facet normal 0.5801927527753596 0.15549834584468716 -0.7994977386250173
outer loop
vertex 24.7404 24.6388 0.0844
vertex 24.826800000000002 24.6352 0.1464
vertex 24.7776 24.5 0.0844
endloop
endfacet
facet normal 0.6272219309154673 0.12433097447139863 -0.7688526895092876
outer loop
vertex 24.826800000000002 24.6352 0.1464
vertex 24.8536 24.5 0.1464
vertex 24.7776 24.5 0.0844
endloop
endfacet
facet normal 0 -0.6321267274717913 -0.7748650207718785
outer loop
vertex 24.5 -24.8536 0.1464
vertex -24.5 -24.8536 0.1464
vertex -24.5 -24.7776 0.0844
endloop
endfacet
facet normal 0 -0.6321267274717913 -0.7748650207718785
outer loop
vertex 24.5 -24.8536 0.1464
vertex -24.5 -24.7776 0.0844
vertex 24.5 -24.7776 0.0844
endloop
endfacet
facet normal -0.6321267274717913 0 -0.7748650207718785
outer loop
vertex -24.8536 -24.5 0.1464
vertex -24.8536 24.5 0.1464
vertex -24.7776 24.5 0.0844
endloop
endfacet
facet normal -0.6321267274717913 0 -0.7748650207718785
outer loop
vertex -24.8536 -24.5 0.1464
vertex -24.7776 24.5 0.0844
vertex -24.7776 -24.5 0.0844
endloop
endfacet
facet normal 0 0.6321267274717913 -0.7748650207718785
outer loop
vertex -24.5 24.8536 0.1464
vertex 24.5 24.8536 0.1464
vertex 24.5 24.7776 0.0844
endloop
endfacet
facet normal 0 0.6321267274717913 -0.7748650207718785
outer loop
vertex -24.5 24.8536 0.1464
vertex 24.5 24.7776 0.0844
vertex -24.5 24.7776 0.0844
endloop
endfacet
facet normal 0.6321267274717913 0 -0.7748650207718785
outer loop
vertex 24.8536 24.5 0.1464
vertex 24.8536 -24.5 0.1464
vertex 24.7776 -24.5 0.0844
endloop
endfacet
facet normal 0.6321267274717913 0 -0.7748650207718785
outer loop
vertex 24.8536 24.5 0.1464
vertex 24.7776 -24.5 0.0844
vertex 24.7776 24.5 0.0844
endloop
endfacet
facet normal 0.4693681768463028 -0.12579608197897563 -0.8739959155068842
outer loop
vertex 24.7776 -24.5 0.0844
vertex 24.7404 -24.6388 0.0844
vertex 24.691200000000002 -24.5 0.038
endloop
endfacet
facet normal 0.3934843218037081 -0.16298167175301662 -0.9047690662082053
outer loop
vertex 24.691200000000002 -24.5 0.038
vertex 24.7404 -24.6388 0.0844
vertex 24.6352 -24.6352 0.038
endloop
endfacet
facet normal 0.3651917977714354 -0.3651917977714354 -0.8563118016709416
outer loop
vertex 24.7404 -24.6388 0.0844
vertex 24.6388 -24.7404 0.0844
vertex 24.6352 -24.6352 0.038
endloop
endfacet
facet normal 0.16298167175301662 -0.3934843218037081 -0.9047690662082054
outer loop
vertex 24.6352 -24.6352 0.038
vertex 24.6388 -24.7404 0.0844
vertex 24.5 -24.691200000000002 0.038
endloop
endfacet
facet normal 0.12579608197897563 -0.4693681768463028 -0.8739959155068843
outer loop
vertex 24.6388 -24.7404 0.0844
vertex 24.5 -24.7776 0.0844
vertex 24.5 -24.691200000000002 0.038
endloop
endfacet
facet normal -0.12579608197897563 -0.4693681768463028 -0.8739959155068842
outer loop
vertex -24.5 -24.7776 0.0844
vertex -24.6388 -24.7404 0.0844
vertex -24.5 -24.691200000000002 0.038
endloop
endfacet
facet normal -0.16298167175301662 -0.3934843218037081 -0.9047690662082053
outer loop
vertex -24.5 -24.691200000000002 0.038
vertex -24.6388 -24.7404 0.0844
vertex -24.6352 -24.6352 0.038
endloop
endfacet
facet normal -0.3651917977714354 -0.3651917977714354 -0.8563118016709416
outer loop
vertex -24.6388 -24.7404 0.0844
vertex -24.7404 -24.6388 0.0844
vertex -24.6352 -24.6352 0.038
endloop
endfacet
facet normal -0.3934843218037081 -0.16298167175301662 -0.9047690662082054
outer loop
vertex -24.6352 -24.6352 0.038
vertex -24.7404 -24.6388 0.0844
vertex -24.691200000000002 -24.5 0.038
endloop
endfacet
facet normal -0.4693681768463028 -0.12579608197897563 -0.8739959155068843
outer loop
vertex -24.7404 -24.6388 0.0844
vertex -24.7776 -24.5 0.0844
vertex -24.691200000000002 -24.5 0.038
endloop
endfacet
facet normal -0.4693681768463028 0.12579608197897563 -0.8739959155068842
outer loop
vertex -24.7776 24.5 0.0844
vertex -24.7404 24.6388 0.0844
vertex -24.691200000000002 24.5 0.038
endloop
endfacet
facet normal -0.3934843218037081 0.16298167175301662 -0.9047690662082053
outer loop
vertex -24.691200000000002 24.5 0.038
vertex -24.7404 24.6388 0.0844
vertex -24.6352 24.6352 0.038
endloop
endfacet
facet normal -0.3651917977714354 0.3651917977714354 -0.8563118016709416
outer loop
vertex -24.7404 24.6388 0.0844
vertex -24.6388 24.7404 0.0844
vertex -24.6352 24.6352 0.038
endloop
endfacet
facet normal -0.16298167175301662 0.3934843218037081 -0.9047690662082054
outer loop
vertex -24.6352 24.6352 0.038
vertex -24.6388 24.7404 0.0844
vertex -24.5 24.691200000000002 0.038
endloop
endfacet
facet normal -0.12579608197897563 0.4693681768463028 -0.8739959155068843
outer loop
vertex -24.6388 24.7404 0.0844
vertex -24.5 24.7776 0.0844
vertex -24.5 24.691200000000002 0.038
endloop
endfacet
facet normal 0.12579608197897563 0.4693681768463028 -0.8739959155068842
outer loop
vertex 24.5 24.7776 0.0844
vertex 24.6388 24.7404 0.0844
vertex 24.5 24.691200000000002 0.038
endloop
endfacet
facet normal 0.16298167175301662 0.3934843218037081 -0.9047690662082053
outer loop
vertex 24.5 24.691200000000002 0.038
vertex 24.6388 24.7404 0.0844
vertex 24.6352 24.6352 0.038
endloop
endfacet
facet normal 0.3651917977714354 0.3651917977714354 -0.8563118016709416
outer loop
vertex 24.6388 24.7404 0.0844
vertex 24.7404 24.6388 0.0844
vertex 24.6352 24.6352 0.038
endloop
endfacet
facet normal 0.3934843218037081 0.16298167175301662 -0.9047690662082054
outer loop
vertex 24.6352 24.6352 0.038
vertex 24.7404 24.6388 0.0844
vertex 24.691200000000002 24.5 0.038
endloop
endfacet
facet normal 0.4693681768463028 0.12579608197897563 -0.8739959155068843
outer loop
vertex 24.7404 24.6388 0.0844
vertex 24.7776 24.5 0.0844
vertex 24.691200000000002 24.5 0.038
endloop
endfacet
facet normal 0 -0.47312663795682336 -0.8809944292988878
outer loop
vertex 24.5 -24.7776 0.0844
vertex -24.5 -24.7776 0.0844
vertex -24.5 -24.691200000000002 0.038
endloop
endfacet
facet normal 0 -0.47312663795682336 -0.8809944292988878
outer loop
vertex 24.5 -24.7776 0.0844
vertex -24.5 -24.691200000000002 0.038
vertex 24.5 -24.691200000000002 0.038
endloop
endfacet
facet normal -0.47312663795682336 0 -0.8809944292988878
outer loop
vertex -24.7776 -24.5 0.0844
vertex -24.7776 24.5 0.0844
vertex -24.691200000000002 24.5 0.038
endloop
endfacet
facet normal -0.47312663795682336 0 -0.8809944292988878
outer loop
vertex -24.7776 -24.5 0.0844
vertex -24.691200000000002 24.5 0.038
vertex -24.691200000000002 -24.5 0.038
endloop
endfacet
facet normal 0 0.47312663795682336 -0.8809944292988878
outer loop
vertex -24.5 24.7776 0.0844
vertex 24.5 24.7776 0.0844
vertex 24.5 24.691200000000002 0.038
endloop
endfacet
facet normal 0 0.47312663795682336 -0.8809944292988878
outer loop
vertex -24.5 24.7776 0.0844
vertex 24.5 24.691200000000002 0.038
vertex -24.5 24.691200000000002 0.038
endloop
endfacet
facet normal 0.47312663795682336 0 -0.8809944292988878
outer loop
vertex 24.7776 24.5 0.0844
vertex 24.7776 -24.5 0.0844
vertex 24.691200000000002 -24.5 0.038
endloop
endfacet
facet normal 0.47312663795682336 0 -0.8809944292988878
outer loop
vertex 24.7776 24.5 0.0844
vertex 24.691200000000002 -24.5 0.038
vertex 24.691200000000002 24.5 0.038
endloop
endfacet
facet normal 0.28827072041109975 -0.1194020735430601 -0.9500753320591391
outer loop
vertex 24.691200000000002 -24.5 0.038
vertex 24.6352 -24.6352 0.038
vertex 24.5976 -24.5 0.009600000000000001
endloop
endfacet
facet normal 0.16008459630531294 -0.16008459630531294 -0.9740358535760016
outer loop
vertex 24.5976 -24.5 0.009600000000000001
vertex 24.6352 -24.6352 0.038
vertex 24.5 -24.5976 0.009600000000000001
endloop
endfacet
facet normal 0.1194020735430601 -0.28827072041109975 -0.9500753320591391
outer loop
vertex 24.6352 -24.6352 0.038
vertex 24.5 -24.691200000000002 0.038
vertex 24.5 -24.5976 0.009600000000000001
endloop
endfacet
facet normal -0.1194020735430601 -0.28827072041109975 -0.9500753320591391
outer loop
vertex -24.5 -24.691200000000002 0.038
vertex -24.6352 -24.6352 0.038
vertex -24.5 -24.5976 0.009600000000000001
endloop
endfacet
facet normal -0.16008459630531294 -0.16008459630531294 -0.9740358535760016
outer loop
vertex -24.5 -24.5976 0.009600000000000001
vertex -24.6352 -24.6352 0.038
vertex -24.5976 -24.5 0.009600000000000001
endloop
endfacet
facet normal -0.28827072041109975 -0.1194020735430601 -0.9500753320591391
outer loop
vertex -24.6352 -24.6352 0.038
vertex -24.691200000000002 -24.5 0.038
vertex -24.5976 -24.5 0.009600000000000001
endloop
endfacet
facet normal -0.28827072041109975 0.1194020735430601 -0.9500753320591391
outer loop
vertex -24.691200000000002 24.5 0.038
vertex -24.6352 24.6352 0.038
vertex -24.5976 24.5 0.009600000000000001
endloop
endfacet
facet normal -0.16008459630531294 0.16008459630531294 -0.9740358535760016
outer loop
vertex -24.5976 24.5 0.009600000000000001
vertex -24.6352 24.6352 0.038
vertex -24.5 24.5976 0.009600000000000001
endloop
endfacet
facet normal -0.1194020735430601 0.28827072041109975 -0.9500753320591391
outer loop
vertex -24.6352 24.6352 0.038
vertex -24.5 24.691200000000002 0.038
vertex -24.5 24.5976 0.009600000000000001
endloop
endfacet
facet normal 0.1194020735430601 0.28827072041109975 -0.9500753320591391
outer loop
vertex 24.5 24.691200000000002 0.038
vertex 24.6352 24.6352 0.038
vertex 24.5 24.5976 0.009600000000000001
endloop
endfacet
facet normal 0.16008459630531294 0.16008459630531294 -0.9740358535760016
outer loop
vertex 24.5 24.5976 0.009600000000000001
vertex 24.6352 24.6352 0.038
vertex 24.5976 24.5 0.009600000000000001
endloop
endfacet
facet normal 0.28827072041109975 0.1194020735430601 -0.9500753320591391
outer loop
vertex 24.6352 24.6352 0.038
vertex 24.691200000000002 24.5 0.038
vertex 24.5976 24.5 0.009600000000000001
endloop
endfacet
facet normal 0 -0.29034787420365443 -0.9569211628684041
outer loop
vertex 24.5 -24.691200000000002 0.038
vertex -24.5 -24.691200000000002 0.038
vertex -24.5 -24.5976 0.009600000000000001
endloop
endfacet
facet normal 0 -0.29034787420365443 -0.9569211628684041
outer loop
vertex 24.5 -24.691200000000002 0.038
vertex -24.5 -24.5976 0.009600000000000001
vertex 24.5 -24.5976 0.009600000000000001
endloop
endfacet
facet normal -0.29034787420365443 0 -0.9569211628684041
outer loop
vertex -24.691200000000002 -24.5 0.038
vertex -24.691200000000002 24.5 0.038
vertex -24.5976 24.5 0.009600000000000001
endloop
endfacet
facet normal -0.29034787420365443 0 -0.9569211628684041
outer loop
vertex -24.691200000000002 -24.5 0.038
vertex -24.5976 24.5 0.009600000000000001
vertex -24.5976 -24.5 0.009600000000000001
endloop
endfacet
facet normal 0 0.29034787420365443 -0.9569211628684041
outer loop
vertex -24.5 24.691200000000002 0.038
vertex 24.5 24.691200000000002 0.038
vertex 24.5 24.5976 0.009600000000000001
endloop
endfacet
facet normal 0 0.29034787420365443 -0.9569211628684041
outer loop
vertex -24.5 24.691200000000002 0.038
vertex 24.5 24.5976 0.009600000000000001
vertex -24.5 24.5976 0.009600000000000001
endloop
endfacet
facet normal 0.29034787420365443 0 -0.9569211628684041
outer loop
vertex 24.691200000000002 24.5 0.038
vertex 24.691200000000002 -24.5 0.038
vertex 24.5976 -24.5 0.009600000000000001
endloop
endfacet
facet normal 0.29034787420365443 0 -0.9569211628684041
outer loop
vertex 24.691200000000002 24.5 0.038
vertex 24.5976 -24.5 0.009600000000000001
vertex 24.5976 24.5 0.009600000000000001
endloop
endfacet
facet normal 0.0974226254057232 -0.0974226254057232 -0.9904633582915182
outer loop
vertex 24.5976 -24.5 0.009600000000000001
vertex 24.5 -24.5976 0.009600000000000001
vertex 24.5 -24.5 0
endloop
endfacet
facet normal -0.0974226254057232 -0.0974226254057232 -0.9904633582915182
outer loop
vertex -24.5 -24.5976 0.009600000000000001
vertex -24.5976 -24.5 0.009600000000000001
vertex -24.5 -24.5 0
endloop
endfacet
facet normal -0.0974226254057232 0.0974226254057232 -0.9904633582915182
outer loop
vertex -24.5976 24.5 0.009600000000000001
vertex -24.5 24.5976 0.009600000000000001
vertex -24.5 24.5 0
endloop
endfacet
facet normal 0.0974226254057232 0.0974226254057232 -0.9904633582915182
outer loop
vertex 24.5 24.5976 0.009600000000000001
vertex 24.5976 24.5 0.009600000000000001
vertex 24.5 24.5 0
endloop
endfacet
facet normal 0 -0.09788826992209937 -0.9951974108746758
outer loop
vertex 24.5 -24.5976 0.009600000000000001
vertex -24.5 -24.5976 0.009600000000000001
vertex -24.5 -24.5 0
endloop
endfacet
facet normal 0 -0.09788826992209937 -0.9951974108746758
outer loop
vertex 24.5 -24.5976 0.009600000000000001
vertex -24.5 -24.5 0
vertex 24.5 -24.5 0
endloop
endfacet
facet normal -0.09788826992209937 0 -0.9951974108746758
outer loop
vertex -24.5976 -24.5 0.009600000000000001
vertex -24.5976 24.5 0.009600000000000001
vertex -24.5 24.5 0
endloop
endfacet
facet normal -0.09788826992209937 0 -0.9951974108746758
outer loop
vertex -24.5976 -24.5 0.009600000000000001
vertex -24.5 24.5 0
vertex -24.5 -24.5 0
endloop
endfacet
facet normal 0 0.09788826992209937 -0.9951974108746758
outer loop
vertex -24.5 24.5976 0.009600000000000001
vertex 24.5 24.5976 0.009600000000000001
vertex 24.5 24.5 0
endloop
endfacet
facet normal 0 0.09788826992209937 -0.9951974108746758
outer loop
vertex -24.5 24.5976 0.009600000000000001
vertex 24.5 24.5 0
vertex -24.5 24.5 0
endloop
endfacet
facet normal 0.09788826992209937 0 -0.9951974108746758
outer loop
vertex 24.5976 24.5 0.009600000000000001
vertex 24.5976 -24.5 0.009600000000000001
vertex 24.5 -24.5 0
endloop
endfacet
facet normal 0.09788826992209937 0 -0.9951974108746758
outer loop
vertex 24.5976 24.5 0.009600000000000001
vertex 24.5 -24.5 0
vertex 24.5 24.5 0
endloop
endfacet
facet normal 0 0 1
outer loop
vertex 24 -24 1
vertex 24 24 1
vertex -24 24 1
endloop
endfacet
facet normal 0 0 1
outer loop
vertex 24 -24 1
vertex -24 24 1
vertex -24 -24 1
endloop
endfacet
facet normal 0 -1 0
outer loop
vertex 24 24 1
vertex 24 24 20
vertex -24 24 20
endloop
endfacet
facet normal 0 -1 0
outer loop
vertex 24 24 1
vertex -24 24 20
vertex -24 24 1
endloop
endfacet
facet normal 1 0 0
outer loop
vertex -24 24 1
vertex -24 24 20
vertex -24 -24 20
endloop
endfacet
facet normal 1 0 0
outer loop
vertex -24 24 1
vertex -24 -24 20
vertex -24 -24 1
endloop
endfacet
facet normal 0 1 0
outer loop
vertex 24 -24 20
vertex 24 -24 1
vertex -24 -24 1
endloop
endfacet
facet normal 0 1 0
outer loop
vertex 24 -24 20
vertex -24 -24 1
vertex -24 -24 20
endloop
endfacet
facet normal -1 0 0
outer loop
vertex 24 24 20
vertex 24 24 1
vertex 24 -24 1
endloop
endfacet
facet normal -1 0 0
outer loop
vertex 24 24 20
vertex 24 -24 1
vertex 24 -24 20
endloop
endfacet
facet normal 1 0 0
outer loop
vertex 25 0 13.5
vertex 25 24 20
vertex 25 -24 20
endloop
endfacet
facet normal 1 0 0
outer loop
vertex 25 0 13.5
vertex 25 -24 20
vertex 25 -24.5 20
endloop
endfacet
facet normal 1 0 0
outer loop
vertex 25 0 13.5
vertex 25 -24.5 20
vertex 25 -24.5 0.5
endloop
endfacet
facet normal 1 0 0
outer loop
vertex 25 0 13.5
vertex 25 -24.5 0.5
vertex 25 24.5 0.5
endloop
endfacet
facet normal 1 0 0
outer loop
vertex 25 0 13.5
vertex 25 24.5 0.5
vertex 25 24.5 20
endloop
endfacet
facet normal 1 0 0
outer loop
vertex 25 0 13.5
vertex 25 24.5 20
vertex 25 24 20
endloop
endfacet
facet normal 0 -1 0
outer loop
vertex -24.5 -25 20
vertex -24.5 -25 0.5
vertex 24.5 -25 0.5
endloop
endfacet
facet normal 0 -1 0
outer loop
vertex -24.5 -25 20
vertex 24.5 -25 0.5
vertex 24.5 -25 20
endloop
endfacet
facet normal -1 0 0
outer loop
vertex -25 0 13.5
vertex -25 24.5 0.5
vertex -25 -24.5 0.5
endloop
endfacet
facet normal -1 0 0
outer loop
vertex -25 0 13.5
vertex -25 -24.5 0.5
vertex -25 -24.5 20
endloop
endfacet
facet normal -1 0 0
outer loop
vertex -25 0 13.5
vertex -25 -24.5 20
vertex -25 -24 20
endloop
endfacet
facet normal -1 0 0
outer loop
vertex -25 0 13.5
vertex -25 -24 20
vertex -25 24 20
endloop
endfacet
facet normal -1 0 0
outer loop
vertex -25 0 13.5
vertex -25 24 20
vertex -25 24.5 20
endloop
endfacet
facet normal -1 0 0
outer loop
vertex -25 0 13.5
vertex -25 24.5 20
vertex -25 24.5 0.5
endloop
endfacet
facet normal 0 1 0
outer loop
vertex 24.5 25 20
vertex 24.5 25 0.5
vertex -24.5 25 0.5
endloop
endfacet
facet normal 0 1 0
outer loop
vertex 24.5 25 20
vertex -24.5 25 0.5
vertex -24.5 25 20
endloop
endfacet
facet normal 0 0 1
outer loop
vertex 0 24.6624 20
vertex -24.5 25 20
vertex -24.5976 24.9904 20
endloop
endfacet
facet normal 0 0 1
outer loop
vertex 0 24.6624 20
vertex -24.5976 24.9904 20
vertex -24.691200000000002 24.962 20
endloop
endfacet
facet normal 0 0 1
outer loop
vertex 0 24.6624 20
vertex -24.691200000000002 24.962 20
vertex -24.7776 24.9156 20
endloop
endfacet
facet normal 0 0 1
outer loop
vertex 0 24.6624 20
vertex -24.7776 24.9156 20
vertex -24.8536 24.8536 20
endloop
endfacet
facet normal 0 0 0.9999999999999999
outer loop
vertex 0 24.6624 20
vertex -24.8536 24.8536 20
vertex -24.9156 24.7776 20
endloop
endfacet
facet normal 0 0 1
outer loop
vertex 0 24.6624 20
vertex -24.9156 24.7776 20
vertex -24.962 24.691200000000002 20
endloop
endfacet
facet normal 0 0 1
outer loop
vertex 0 24.6624 20
vertex -24.962 24.691200000000002 20
vertex -24.9904 24.5976 20
endloop
endfacet
facet normal 0 0 1
outer loop
vertex 0 24.6624 20
vertex -24.9904 24.5976 20
vertex -25 24.5 20
endloop
endfacet
facet normal 0 0 1
outer loop
vertex 0 24.6624 20
vertex -25 24.5 20
vertex -25 24 20
endloop
endfacet
facet normal 0 0 1
outer loop
vertex 0 24.6624 20
vertex -25 24 20
vertex -24 24 20
endloop
endfacet
facet normal 0 0 1
outer loop
vertex 0 24.6624 20
vertex -24 24 20
vertex 24 24 20
endloop
endfacet
facet normal 0 0 1
outer loop
vertex 0 24.6624 20
vertex 24 24 20
vertex 25 24 20
endloop
endfacet
facet normal 0 0 1
outer loop
vertex 0 24.6624 20
vertex 25 24 20
vertex 25 24.5 20
endloop
endfacet
facet normal 0 0 1
outer loop
vertex 0 24.6624 20
vertex 25 24.5 20
vertex 24.9904 24.5976 20
endloop
endfacet
facet normal 0 0 1
outer loop
vertex 0 24.6624 20
vertex 24.9904 24.5976 20
vertex 24.962 24.691200000000002 20
endloop
endfacet
facet normal 0 0 1
outer loop
vertex 0 24.6624 20
vertex 24.962 24.691200000000002 20
vertex 24.9156 24.7776 20
endloop
endfacet
facet normal 0 0 0.9999999999999999
outer loop
vertex 0 24.6624 20
vertex 24.9156 24.7776 20
vertex 24.8536 24.8536 20
endloop
endfacet
facet normal 0 0 1
outer loop
vertex 0 24.6624 20
vertex 24.8536 24.8536 20
vertex 24.7776 24.9156 20
endloop
endfacet
facet normal 0 0 1
outer loop
vertex 0 24.6624 20
vertex 24.7776 24.9156 20
vertex 24.691200000000002 24.962 20
endloop
endfacet
facet normal 0 0 1
outer loop
vertex 0 24.6624 20
vertex 24.691200000000002 24.962 20
vertex 24.5976 24.9904 20
endloop
endfacet
facet normal 0 0 1
outer loop
vertex 0 24.6624 20
vertex 24.5976 24.9904 20
vertex 24.5 25 20
endloop
endfacet
facet normal 0 0 1
outer loop
vertex 0 24.6624 20
vertex 24.5 25 20
vertex -24.5 25 20
endloop
endfacet
facet normal 0 0 1
outer loop
vertex 24 24 20
vertex 24 -24 20
vertex 25 -24 20
endloop
endfacet
facet normal 0 0 1
outer loop
vertex 24 24 20
vertex 25 -24 20
vertex 25 24 20
endloop
endfacet
facet normal 0 0 1
outer loop
vertex -25 24 20
vertex -25 -24 20
vertex -24 -24 20
endloop
endfacet
facet normal 0 0 1
outer loop
vertex -25 24 20
vertex -24 -24 20
vertex -24 24 20
endloop
endfacet
facet normal 0 0 1
outer loop
vertex 0 -24.6624 20
vertex 24 -24 20
vertex -24 -24 20
endloop
endfacet
facet normal 0 0 1
outer loop
vertex 0 -24.6624 20
vertex -24 -24 20
vertex -25 -24 20
endloop
endfacet
facet normal 0 0 1
outer loop
vertex 0 -24.6624 20
vertex -25 -24 20
vertex -25 -24.5 20
endloop
endfacet
facet normal 0 0 1
outer loop
vertex 0 -24.6624 20
vertex -25 -24.5 20
vertex -24.9904 -24.5976 20
endloop
endfacet
facet normal 0 0 1
outer loop
vertex 0 -24.6624 20
vertex -24.9904 -24.5976 20
vertex -24.962 -24.691200000000002 20
endloop
endfacet
facet normal 0 0 1
outer loop
vertex 0 -24.6624 20
vertex -24.962 -24.691200000000002 20
vertex -24.9156 -24.7776 20
endloop
endfacet
facet normal 0 0 0.9999999999999999
outer loop
vertex 0 -24.6624 20
vertex -24.9156 -24.7776 20
vertex -24.8536 -24.8536 20
endloop
endfacet
facet normal 0 0 1
outer loop
vertex 0 -24.6624 20
vertex -24.8536 -24.8536 20
vertex -24.7776 -24.9156 20
endloop
endfacet
facet normal 0 0 1
outer loop
vertex 0 -24.6624 20
vertex -24.7776 -24.9156 20
vertex -24.691200000000002 -24.962 20
endloop
endfacet
facet normal 0 0 1
outer loop
vertex 0 -24.6624 20
vertex -24.691200000000002 -24.962 20
vertex -24.5976 -24.9904 20
endloop
endfacet
facet normal 0 0 1
outer loop
vertex 0 -24.6624 20
vertex -24.5976 -24.9904 20
vertex -24.5 -25 20
endloop
endfacet
facet normal 0 0 1
outer loop
vertex 0 -24.6624 20
vertex -24.5 -25 20
vertex 24.5 -25 20
endloop
endfacet
facet normal 0 0 1
outer loop
vertex 0 -24.6624 20
vertex 24.5 -25 20
vertex 24.5976 -24.9904 20
endloop
endfacet
facet normal 0 0 1
outer loop
vertex 0 -24.6624 20
vertex 24.5976 -24.9904 20
vertex 24.691200000000002 -24.962 20
endloop
endfacet
facet normal 0 0 1
outer loop
vertex 0 -24.6624 20
vertex 24.691200000000002 -24.962 20
vertex 24.7776 -24.9156 20
endloop
endfacet
facet normal 0 0 1
outer loop
vertex 0 -24.6624 20
vertex 24.7776 -24.9156 20
vertex 24.8536 -24.8536 20
endloop
endfacet
facet normal 0 0 0.9999999999999999
outer loop
vertex 0 -24.6624 20
vertex 24.8536 -24.8536 20
vertex 24.9156 -24.7776 20
endloop
endfacet
facet normal 0 0 1
outer loop
vertex 0 -24.6624 20
vertex 24.9156 -24.7776 20
vertex 24.962 -24.691200000000002 20
endloop
endfacet
facet normal 0 0 1
outer loop
vertex 0 -24.6624 20
vertex 24.962 -24.691200000000002 20
vertex 24.9904 -24.5976 20
endloop
endfacet
facet normal 0 0 1
outer loop
vertex 0 -24.6624 20
vertex 24.9904 -24.5976 20
vertex 25 -24.5 20
endloop
endfacet
facet normal 0 0 1
outer loop
vertex 0 -24.6624 20
vertex 25 -24.5 20
vertex 25 -24 20
endloop
endfacet
facet normal 0 0 1
outer loop
vertex 0 -24.6624 20
vertex 25 -24 20
vertex 24 -24 20
endloop
endfacet
facet normal 0 0 -1
outer loop
vertex 24.5 24.5 0
vertex 24.5 -24.5 0
vertex -24.5 -24.5 0
endloop
endfacet
facet normal 0 0 -1
outer loop
vertex 24.5 24.5 0
vertex -24.5 -24.5 0
vertex -24.5 24.5 0
endloop
endfacet
endsolid JSCAD
