solid JSCAD
facet normal 1 0 0
outer loop
vertex 15 -1 0
vertex 15 1 0
vertex 15 1 20
endloop
endfacet
facet normal 1 0 0
outer loop
vertex 15 -1 0
vertex 15 1 20
vertex 15 -1 20
endloop
endfacet
facet normal 0 0 -1
outer loop
vertex 2 15 0
vertex 2 1.5 0
vertex -2 1.5 0
endloop
endfacet
facet normal 0 0 -1
outer loop
vertex 2 15 0
vertex -2 1.5 0
vertex -2 15 0
endloop
endfacet
facet normal 0 0 -1
outer loop
vertex -5.6000000000000005 1.3 0
vertex -2 1.5 0
vertex 2 1.5 0
endloop
endfacet
facet normal 0 0 -0.9999999999999999
outer loop
vertex -5.6000000000000005 1.3 0
vertex 2 1.5 0
vertex 2 1 0
endloop
endfacet
facet normal 0 0 -1
outer loop
vertex -5.6000000000000005 1.3 0
vertex 2 1 0
vertex -15 1 0
endloop
endfacet
facet normal 0 0 -1
outer loop
vertex -5.6000000000000005 1.3 0
vertex -15 1 0
vertex -15 1.5 0
endloop
endfacet
facet normal 0 0 -1
outer loop
vertex -5.6000000000000005 1.3 0
vertex -15 1.5 0
vertex -2 1.5 0
endloop
endfacet
facet normal 0 0 -1
outer loop
vertex 0.7501333333333333 0 0
vertex 2 1 0
vertex 15 1 0
endloop
endfacet
facet normal 0 0 -0.9999999999999999
outer loop
vertex 0.7501333333333333 0 0
vertex 15 1 0
vertex 15 -1 0
endloop
endfacet
facet normal 0 0 -1
outer loop
vertex 0.7501333333333333 0 0
vertex 15 -1 0
vertex 2.5 -1 0
endloop
endfacet
facet normal 0 0 -1
outer loop
vertex 0.7501333333333333 0 0
vertex 2.5 -1 0
vertex -15 -1 0
endloop
endfacet
facet normal 0 0 -1
outer loop
vertex 0.7501333333333333 0 0
vertex -15 -1 0
vertex -15 1 0
endloop
endfacet
facet normal 0 0 -1
outer loop
vertex 0.7501333333333333 0 0
vertex -15 1 0
vertex 2 1 0
endloop
endfacet
facet normal 0 0 -1
outer loop
vertex -5.5 -1.3 0
vertex 2.5 -1 0
vertex 2.5 -1.5 0
endloop
endfacet
facet normal 0 0 -1
outer loop
vertex -5.5 -1.3 0
vertex 2.5 -1.5 0
vertex -2.5 -1.5 0
endloop
endfacet
facet normal 0 0 -1
outer loop
vertex -5.5 -1.3 0
vertex -2.5 -1.5 0
vertex -15 -1.5 0
endloop
endfacet
facet normal 0 0 -1
outer loop
vertex -5.5 -1.3 0
vertex -15 -1.5 0
vertex -15 -1 0
endloop
endfacet
facet normal 0 0 -1
outer loop
vertex -5.5 -1.3 0
vertex -15 -1 0
vertex 2.5 -1 0
endloop
endfacet
facet normal 0 0 -1
outer loop
vertex 2.5 -1.5 0
vertex 2.5 -15 0
vertex -2.5 -15 0
endloop
endfacet
facet normal 0 0 -1
outer loop
vertex 2.5 -1.5 0
vertex -2.5 -15 0
vertex -2.5 -1.5 0
endloop
endfacet
facet normal 0 0 1
outer loop
vertex -2 15 20
vertex -2 1.5 20
vertex 2 1.5 20
endloop
endfacet
facet normal 0 0 1
outer loop
vertex -2 15 20
vertex 2 1.5 20
vertex 2 15 20
endloop
endfacet
facet normal 0 0 1
outer loop
vertex -5.6000000000000005 1.3 20
vertex -2 1.5 20
vertex -15 1.5 20
endloop
endfacet
facet normal 0 0 1
outer loop
vertex -5.6000000000000005 1.3 20
vertex -15 1.5 20
vertex -15 1 20
endloop
endfacet
facet normal 0 0 1
outer loop
vertex -5.6000000000000005 1.3 20
vertex -15 1 20
vertex 2 1 20
endloop
endfacet
facet normal 0 0 0.9999999999999999
outer loop
vertex -5.6000000000000005 1.3 20
vertex 2 1 20
vertex 2 1.5 20
endloop
endfacet
facet normal 0 0 1
outer loop
vertex -5.6000000000000005 1.3 20
vertex 2 1.5 20
vertex -2 1.5 20
endloop
endfacet
facet normal 0 0 1
outer loop
vertex 0.7501333333333333 0 20
vertex 2 1 20
vertex -15 1 20
endloop
endfacet
facet normal 0 0 1
outer loop
vertex 0.7501333333333333 0 20
vertex -15 1 20
vertex -15 -1 20
endloop
endfacet
facet normal 0 0 1
outer loop
vertex 0.7501333333333333 0 20
vertex -15 -1 20
vertex 2.5 -1 20
endloop
endfacet
facet normal 0 0 1
outer loop
vertex 0.7501333333333333 0 20
vertex 2.5 -1 20
vertex 15 -1 20
endloop
endfacet
facet normal 0 0 0.9999999999999999
outer loop
vertex 0.7501333333333333 0 20
vertex 15 -1 20
vertex 15 1 20
endloop
endfacet
facet normal 0 0 1
outer loop
vertex 0.7501333333333333 0 20
vertex 15 1 20
vertex 2 1 20
endloop
endfacet
facet normal 0 0 1
outer loop
vertex -5.5 -1.3 20
vertex -15 -1 20
vertex -15 -1.5 20
endloop
endfacet
facet normal 0 0 1
outer loop
vertex -5.5 -1.3 20
vertex -15 -1.5 20
vertex -2.5 -1.5 20
endloop
endfacet
facet normal 0 0 1
outer loop
vertex -5.5 -1.3 20
vertex -2.5 -1.5 20
vertex 2.5 -1.5 20
endloop
endfacet
facet normal 0 0 1
outer loop
vertex -5.5 -1.3 20
vertex 2.5 -1.5 20
vertex 2.5 -1 20
endloop
endfacet
facet normal 0 0 1
outer loop
vertex -5.5 -1.3 20
vertex 2.5 -1 20
vertex -15 -1 20
endloop
endfacet
facet normal 0 0 1
outer loop
vertex -2.5 -1.5 20
vertex -2.5 -15 20
vertex 2.5 -15 20
endloop
endfacet
facet normal 0 0 1
outer loop
vertex -2.5 -1.5 20
vertex 2.5 -15 20
vertex 2.5 -1.5 20
endloop
endfacet
facet normal 0 1 0
outer loop
vertex 2 1 20
vertex 15 1 20
vertex 15 1 0
endloop
endfacet
facet normal 0 1 0
outer loop
vertex 2 1 20
vertex 15 1 0
vertex 2 1 0
endloop
endfacet
facet normal 0 1 0
outer loop
vertex 2 15 0
vertex -2 15 0
vertex -2 15 20
endloop
endfacet
facet normal 0 1 0
outer loop
vertex 2 15 0
vertex -2 15 20
vertex 2 15 20
endloop
endfacet
facet normal 1 0 0
outer loop
vertex 2 5.833333333333334 10
vertex 2 1 0
vertex 2 1.5 0
endloop
endfacet
facet normal 1 0 0
outer loop
vertex 2 5.833333333333334 10
vertex 2 1.5 0
vertex 2 15 0
endloop
endfacet
facet normal 1 0 0
outer loop
vertex 2 5.833333333333334 10
vertex 2 15 0
vertex 2 15 20
endloop
endfacet
facet normal 1 0 0
outer loop
vertex 2 5.833333333333334 10
vertex 2 15 20
vertex 2 1.5 20
endloop
endfacet
facet normal 1 0 0
outer loop
vertex 2 5.833333333333334 10
vertex 2 1.5 20
vertex 2 1 20
endloop
endfacet
facet normal 1 0 0
outer loop
vertex 2 5.833333333333334 10
vertex 2 1 20
vertex 2 1 0
endloop
endfacet
facet normal 0 -1 0
outer loop
vertex 2.5 -1 0
vertex 15 -1 0
vertex 15 -1 20
endloop
endfacet
facet normal 0 -1 0
outer loop
vertex 2.5 -1 0
vertex 15 -1 20
vertex 2.5 -1 20
endloop
endfacet
facet normal -1 0 0
outer loop
vertex -2 1.5 20
vertex -2 15 20
vertex -2 15 0
endloop
endfacet
facet normal -1 0 0
outer loop
vertex -2 1.5 20
vertex -2 15 0
vertex -2 1.5 0
endloop
endfacet
facet normal -1 0 0
outer loop
vertex -15 0 10
vertex -15 1.5 0
vertex -15 1 0
endloop
endfacet
facet normal -1 0 0
outer loop
vertex -15 0 10
vertex -15 1 0
vertex -15 -1 0
endloop
endfacet
facet normal -1 0 0
outer loop
vertex -15 0 10
vertex -15 -1 0
vertex -15 -1.5 0
endloop
endfacet
facet normal -1 0 0
outer loop
vertex -15 0 10
vertex -15 -1.5 0
vertex -15 -1.5 20
endloop
endfacet
facet normal -1 0 0
outer loop
vertex -15 0 10
vertex -15 -1.5 20
vertex -15 -1 20
endloop
endfacet
facet normal -1 0 0
outer loop
vertex -15 0 10
vertex -15 -1 20
vertex -15 1 20
endloop
endfacet
facet normal -1 0 0
outer loop
vertex -15 0 10
vertex -15 1 20
vertex -15 1.5 20
endloop
endfacet
facet normal -1 0 0
outer loop
vertex -15 0 10
vertex -15 1.5 20
vertex -15 1.5 0
endloop
endfacet
facet normal 0 -1 0
outer loop
vertex -2.5 -1.5 20
vertex -15 -1.5 20
vertex -15 -1.5 0
endloop
endfacet
facet normal 0 -1 0
outer loop
vertex -2.5 -1.5 20
vertex -15 -1.5 0
vertex -2.5 -1.5 0
endloop
endfacet
facet normal 0 -1 0
outer loop
vertex -2.5 -15 0
vertex 2.5 -15 0
vertex 2.5 -15 20
endloop
endfacet
facet normal 0 -1 0
outer loop
vertex -2.5 -15 0
vertex 2.5 -15 20
vertex -2.5 -15 20
endloop
endfacet
facet normal -1 0 0
outer loop
vertex -2.5 -1.5 0
vertex -2.5 -15 0
vertex -2.5 -15 20
endloop
endfacet
facet normal -1 0 0
outer loop
vertex -2.5 -1.5 0
vertex -2.5 -15 20
vertex -2.5 -1.5 20
endloop
endfacet
facet normal 0 1 0
outer loop
vertex -2 1.5 0
vertex -15 1.5 0
vertex -15 1.5 20
endloop
endfacet
facet normal 0 1 0
outer loop
vertex -2 1.5 0
vertex -15 1.5 20
vertex -2 1.5 20
endloop
endfacet
facet normal 1 0 0
outer loop
vertex 2.5 -5.833333333333334 10
vertex 2.5 -1 20
vertex 2.5 -1.5 20
endloop
endfacet
facet normal 1 0 0
outer loop
vertex 2.5 -5.833333333333334 10
vertex 2.5 -1.5 20
vertex 2.5 -15 20
endloop
endfacet
facet normal 1 0 0
outer loop
vertex 2.5 -5.833333333333334 10
vertex 2.5 -15 20
vertex 2.5 -15 0
endloop
endfacet
facet normal 1 0 0
outer loop
vertex 2.5 -5.833333333333334 10
vertex 2.5 -15 0
vertex 2.5 -1.5 0
endloop
endfacet
facet normal 1 0 0
outer loop
vertex 2.5 -5.833333333333334 10
vertex 2.5 -1.5 0
vertex 2.5 -1 0
endloop
endfacet
facet normal 1 0 0
outer loop
vertex 2.5 -5.833333333333334 10
vertex 2.5 -1 0
vertex 2.5 -1 20
endloop
endfacet
endsolid JSCAD
