solid JSCAD
facet normal -1 0 0
outer loop
vertex -20.500053333333334 -9.99994 4.000006666666667
vertex -20.500053333333334 -9.99994 18.999993333333332
vertex -20.500053333333334 9.99994 18.999993333333332
endloop
endfacet
facet normal -1 0 0
outer loop
vertex -20.500053333333334 -9.99994 4.000006666666667
vertex -20.500053333333334 9.99994 18.999993333333332
vertex -20.500053333333334 9.99994 4.000006666666667
endloop
endfacet
facet normal 1 0 0
outer loop
vertex -9.500073333333333 -9.99994 4.000006666666667
vertex -9.500073333333333 9.99994 4.000006666666667
vertex -9.500073333333333 9.99994 18.999993333333332
endloop
endfacet
facet normal 1 0 0
outer loop
vertex -9.500073333333333 -9.99994 4.000006666666667
vertex -9.500073333333333 9.99994 18.999993333333332
vertex -9.500073333333333 -9.99994 18.999993333333332
endloop
endfacet
facet normal 0 -1 0
outer loop
vertex -20.500053333333334 -9.99994 4.000006666666667
vertex -9.500073333333333 -9.99994 4.000006666666667
vertex -9.500073333333333 -9.99994 18.999993333333332
endloop
endfacet
facet normal 0 -1 0
outer loop
vertex -20.500053333333334 -9.99994 4.000006666666667
vertex -9.500073333333333 -9.99994 18.999993333333332
vertex -20.500053333333334 -9.99994 18.999993333333332
endloop
endfacet
facet normal 0 1 0
outer loop
vertex -20.500053333333334 9.99994 4.000006666666667
vertex -20.500053333333334 9.99994 18.999993333333332
vertex -9.500073333333333 9.99994 18.999993333333332
endloop
endfacet
facet normal 0 1 0
outer loop
vertex -20.500053333333334 9.99994 4.000006666666667
vertex -9.500073333333333 9.99994 18.999993333333332
vertex -9.500073333333333 9.99994 4.000006666666667
endloop
endfacet
facet normal 0 0 -1
outer loop
vertex -20.500053333333334 -9.99994 4.000006666666667
vertex -20.500053333333334 9.99994 4.000006666666667
vertex -9.500073333333333 9.99994 4.000006666666667
endloop
endfacet
facet normal 0 0 -1
outer loop
vertex -20.500053333333334 -9.99994 4.000006666666667
vertex -9.500073333333333 9.99994 4.000006666666667
vertex -9.500073333333333 -9.99994 4.000006666666667
endloop
endfacet
facet normal 0 0 1
outer loop
vertex -20.500053333333334 -9.99994 18.999993333333332
vertex -9.500073333333333 -9.99994 18.999993333333332
vertex -9.500073333333333 9.99994 18.999993333333332
endloop
endfacet
facet normal 0 0 1
outer loop
vertex -20.500053333333334 -9.99994 18.999993333333332
vertex -9.500073333333333 9.99994 18.999993333333332
vertex -20.500053333333334 9.99994 18.999993333333332
endloop
endfacet
facet normal -1 0 0
outer loop
vertex -20.499916666666667 -10.000033333333334 0
vertex -20.499916666666667 -10.000033333333334 4.000100000000001
vertex -20.499916666666667 10.000033333333334 4.000100000000001
endloop
endfacet
facet normal -1 0 0
outer loop
vertex -20.499916666666667 -10.000033333333334 0
vertex -20.499916666666667 10.000033333333334 4.000100000000001
vertex -20.499916666666667 10.000033333333334 0
endloop
endfacet
facet normal 1 0 0
outer loop
vertex 20.499916666666667 -10.000033333333334 0
vertex 20.499916666666667 10.000033333333334 0
vertex 20.499916666666667 10.000033333333334 4.000100000000001
endloop
endfacet
facet normal 1 0 0
outer loop
vertex 20.499916666666667 -10.000033333333334 0
vertex 20.499916666666667 10.000033333333334 4.000100000000001
vertex 20.499916666666667 -10.000033333333334 4.000100000000001
endloop
endfacet
facet normal 0 -1 0
outer loop
vertex -20.499916666666667 -10.000033333333334 0
vertex 20.499916666666667 -10.000033333333334 0
vertex 20.499916666666667 -10.000033333333334 4.000100000000001
endloop
endfacet
facet normal 0 -1 0
outer loop
vertex -20.499916666666667 -10.000033333333334 0
vertex 20.499916666666667 -10.000033333333334 4.000100000000001
vertex -20.499916666666667 -10.000033333333334 4.000100000000001
endloop
endfacet
facet normal 0 1 0
outer loop
vertex -20.499916666666667 10.000033333333334 0
vertex -20.499916666666667 10.000033333333334 4.000100000000001
vertex 20.499916666666667 10.000033333333334 4.000100000000001
endloop
endfacet
facet normal 0 1 0
outer loop
vertex -20.499916666666667 10.000033333333334 0
vertex 20.499916666666667 10.000033333333334 4.000100000000001
vertex 20.499916666666667 10.000033333333334 0
endloop
endfacet
facet normal 0 0 -0.9999999999999999
outer loop
vertex -20.499916666666667 -10.000033333333334 0
vertex -20.499916666666667 10.000033333333334 0
vertex 20.499916666666667 10.000033333333334 0
endloop
endfacet
facet normal 0 0 -0.9999999999999999
outer loop
vertex -20.499916666666667 -10.000033333333334 0
vertex 20.499916666666667 10.000033333333334 0
vertex 20.499916666666667 -10.000033333333334 0
endloop
endfacet
facet normal 0 0 0.9999999999999999
outer loop
vertex -20.499916666666667 -10.000033333333334 4.000100000000001
vertex 20.499916666666667 -10.000033333333334 4.000100000000001
vertex 20.499916666666667 10.000033333333334 4.000100000000001
endloop
endfacet
facet normal 0 0 0.9999999999999999
outer loop
vertex -20.499916666666667 -10.000033333333334 4.000100000000001
vertex 20.499916666666667 10.000033333333334 4.000100000000001
vertex -20.499916666666667 10.000033333333334 4.000100000000001
endloop
endfacet
facet normal -1 0 0
outer loop
vertex 1.4999466666666668 -10.000000000000002 4.000000000000001
vertex 1.4999466666666668 -10.000000000000002 8.000000000000002
vertex 1.4999466666666668 10.000000000000002 8.000000000000002
endloop
endfacet
facet normal -1 0 0
outer loop
vertex 1.4999466666666668 -10.000000000000002 4.000000000000001
vertex 1.4999466666666668 10.000000000000002 8.000000000000002
vertex 1.4999466666666668 10.000000000000002 4.000000000000001
endloop
endfacet
facet normal 1 0 0
outer loop
vertex 9.499946666666668 -10.000000000000002 4.000000000000001
vertex 9.499946666666668 10.000000000000002 4.000000000000001
vertex 9.499946666666668 10.000000000000002 8.000000000000002
endloop
endfacet
facet normal 1 0 0
outer loop
vertex 9.499946666666668 -10.000000000000002 4.000000000000001
vertex 9.499946666666668 10.000000000000002 8.000000000000002
vertex 9.499946666666668 -10.000000000000002 8.000000000000002
endloop
endfacet
facet normal 0 -1 0
outer loop
vertex 1.4999466666666668 -10.000000000000002 4.000000000000001
vertex 9.499946666666668 -10.000000000000002 4.000000000000001
vertex 9.499946666666668 -10.000000000000002 8.000000000000002
endloop
endfacet
facet normal 0 -1 0
outer loop
vertex 1.4999466666666668 -10.000000000000002 4.000000000000001
vertex 9.499946666666668 -10.000000000000002 8.000000000000002
vertex 1.4999466666666668 -10.000000000000002 8.000000000000002
endloop
endfacet
facet normal 0 1 0
outer loop
vertex 1.4999466666666668 10.000000000000002 4.000000000000001
vertex 1.4999466666666668 10.000000000000002 8.000000000000002
vertex 9.499946666666668 10.000000000000002 8.000000000000002
endloop
endfacet
facet normal 0 1 0
outer loop
vertex 1.4999466666666668 10.000000000000002 4.000000000000001
vertex 9.499946666666668 10.000000000000002 8.000000000000002
vertex 9.499946666666668 10.000000000000002 4.000000000000001
endloop
endfacet
facet normal 0 0 -1
outer loop
vertex 1.4999466666666668 -10.000000000000002 4.000000000000001
vertex 1.4999466666666668 10.000000000000002 4.000000000000001
vertex 9.499946666666668 10.000000000000002 4.000000000000001
endloop
endfacet
facet normal 0 0 -1
outer loop
vertex 1.4999466666666668 -10.000000000000002 4.000000000000001
vertex 9.499946666666668 10.000000000000002 4.000000000000001
vertex 9.499946666666668 -10.000000000000002 4.000000000000001
endloop
endfacet
facet normal 0 0 1
outer loop
vertex 1.4999466666666668 -10.000000000000002 8.000000000000002
vertex 9.499946666666668 -10.000000000000002 8.000000000000002
vertex 9.499946666666668 10.000000000000002 8.000000000000002
endloop
endfacet
facet normal 0 0 1
outer loop
vertex 1.4999466666666668 -10.000000000000002 8.000000000000002
vertex 9.499946666666668 10.000000000000002 8.000000000000002
vertex 1.4999466666666668 10.000000000000002 8.000000000000002
endloop
endfacet
endsolid JSCAD
