solid JSCAD
facet normal 0 -1 0
outer loop
vertex 40 -5 10
vertex 40 -5 9
vertex 50 -5 9
endloop
endfacet
facet normal 0 -1 0
outer loop
vertex 40 -5 10
vertex 50 -5 9
vertex 50 -5 10
endloop
endfacet
facet normal 0 -1 0
outer loop
vertex 40 -5 8.6
vertex 40 -5 9
vertex 30 -5 9
endloop
endfacet
facet normal 0 -1 0
outer loop
vertex 40 -5 8.6
vertex 30 -5 9
vertex 30 -5 8
endloop
endfacet
facet normal 0 -1 0
outer loop
vertex 40 -5 8.6
vertex 30 -5 8
vertex 50 -5 8
endloop
endfacet
facet normal 0 -1 0
outer loop
vertex 40 -5 8.6
vertex 50 -5 8
vertex 50 -5 9
endloop
endfacet
facet normal 0 -1 0
outer loop
vertex 40 -5 8.6
vertex 50 -5 9
vertex 40 -5 9
endloop
endfacet
facet normal 0 -1 0
outer loop
vertex 34 -5 7.6000000000000005
vertex 30 -5 8
vertex 20 -5 8
endloop
endfacet
facet normal 0 -1 0
outer loop
vertex 34 -5 7.6000000000000005
vertex 20 -5 8
vertex 20 -5 7
endloop
endfacet
facet normal 0 -1 0
outer loop
vertex 34 -5 7.6000000000000005
vertex 20 -5 7
vertex 50 -5 7
endloop
endfacet
facet normal 0 -1 0
outer loop
vertex 34 -5 7.6000000000000005
vertex 50 -5 7
vertex 50 -5 8
endloop
endfacet
facet normal 0 -1 0
outer loop
vertex 34 -5 7.6000000000000005
vertex 50 -5 8
vertex 30 -5 8
endloop
endfacet
facet normal 0 -1 0
outer loop
vertex 28 -5 6.6000000000000005
vertex 20 -5 7
vertex 10 -5 7
endloop
endfacet
facet normal 0 -1 0
outer loop
vertex 28 -5 6.6000000000000005
vertex 10 -5 7
vertex 10 -5 6
endloop
endfacet
facet normal 0 -1 0
outer loop
vertex 28 -5 6.6000000000000005
vertex 10 -5 6
vertex 50 -5 6
endloop
endfacet
facet normal 0 -1 0
outer loop
vertex 28 -5 6.6000000000000005
vertex 50 -5 6
vertex 50 -5 7
endloop
endfacet
facet normal 0 -0.9999999999999999 0
outer loop
vertex 28 -5 6.6000000000000005
vertex 50 -5 7
vertex 20 -5 7
endloop
endfacet
facet normal 0 -1 0
outer loop
vertex 22 -5 5.6000000000000005
vertex 10 -5 6
vertex 0 -5 6
endloop
endfacet
facet normal 0 -1 0
outer loop
vertex 22 -5 5.6000000000000005
vertex 0 -5 6
vertex 0 -5 5
endloop
endfacet
facet normal 0 -1 0
outer loop
vertex 22 -5 5.6000000000000005
vertex 0 -5 5
vertex 50 -5 5
endloop
endfacet
facet normal 0 -1 0
outer loop
vertex 22 -5 5.6000000000000005
vertex 50 -5 5
vertex 50 -5 6
endloop
endfacet
facet normal 0 -1 0
outer loop
vertex 22 -5 5.6000000000000005
vertex 50 -5 6
vertex 10 -5 6
endloop
endfacet
facet normal 0 -1 0
outer loop
vertex 16 -5 4.6000000000000005
vertex 0 -5 5
vertex -10 -5 5
endloop
endfacet
facet normal 0 -1 0
outer loop
vertex 16 -5 4.6000000000000005
vertex -10 -5 5
vertex -10 -5 4
endloop
endfacet
facet normal 0 -1 0
outer loop
vertex 16 -5 4.6000000000000005
vertex -10 -5 4
vertex 50 -5 4
endloop
endfacet
facet normal 0 -1 0
outer loop
vertex 16 -5 4.6000000000000005
vertex 50 -5 4
vertex 50 -5 5
endloop
endfacet
facet normal 0 -1 0
outer loop
vertex 16 -5 4.6000000000000005
vertex 50 -5 5
vertex 0 -5 5
endloop
endfacet
facet normal 0 -1 0
outer loop
vertex 10 -5 3.6
vertex -10 -5 4
vertex -20 -5 4
endloop
endfacet
facet normal 0 -1 0
outer loop
vertex 10 -5 3.6
vertex -20 -5 4
vertex -20 -5 3
endloop
endfacet
facet normal 0 -1 0
outer loop
vertex 10 -5 3.6
vertex -20 -5 3
vertex 50 -5 3
endloop
endfacet
facet normal 0 -1 0
outer loop
vertex 10 -5 3.6
vertex 50 -5 3
vertex 50 -5 4
endloop
endfacet
facet normal 0 -1 0
outer loop
vertex 10 -5 3.6
vertex 50 -5 4
vertex -10 -5 4
endloop
endfacet
facet normal 0 -1 0
outer loop
vertex 4 -5 2.6
vertex -20 -5 3
vertex -30 -5 3
endloop
endfacet
facet normal 0 -1 0
outer loop
vertex 4 -5 2.6
vertex -30 -5 3
vertex -30 -5 2
endloop
endfacet
facet normal 0 -0.9999999999999999 0
outer loop
vertex 4 -5 2.6
vertex -30 -5 2
vertex 50 -5 2
endloop
endfacet
facet normal 0 -1 0
outer loop
vertex 4 -5 2.6
vertex 50 -5 2
vertex 50 -5 3
endloop
endfacet
facet normal 0 -1 0
outer loop
vertex 4 -5 2.6
vertex 50 -5 3
vertex -20 -5 3
endloop
endfacet
facet normal 0 -1 0
outer loop
vertex -2 -5 1.6
vertex -30 -5 2
vertex -40 -5 2
endloop
endfacet
facet normal 0 -1 0
outer loop
vertex -2 -5 1.6
vertex -40 -5 2
vertex -40 -5 1
endloop
endfacet
facet normal 0 -1 0
outer loop
vertex -2 -5 1.6
vertex -40 -5 1
vertex 50 -5 1
endloop
endfacet
facet normal 0 -1 0
outer loop
vertex -2 -5 1.6
vertex 50 -5 1
vertex 50 -5 2
endloop
endfacet
facet normal 0 -1 0
outer loop
vertex -2 -5 1.6
vertex 50 -5 2
vertex -30 -5 2
endloop
endfacet
facet normal 0 -1 0
outer loop
vertex -8 -5 0.6
vertex -40 -5 1
vertex -50 -5 1
endloop
endfacet
facet normal 0 -1 0
outer loop
vertex -8 -5 0.6
vertex -50 -5 1
vertex -50 -5 0
endloop
endfacet
facet normal 0 -1 0
outer loop
vertex -8 -5 0.6
vertex -50 -5 0
vertex 50 -5 0
endloop
endfacet
facet normal 0 -1 0
outer loop
vertex -8 -5 0.6
vertex 50 -5 0
vertex 50 -5 1
endloop
endfacet
facet normal 0 -1 0
outer loop
vertex -8 -5 0.6
vertex 50 -5 1
vertex -40 -5 1
endloop
endfacet
facet normal 0 1 0
outer loop
vertex 50 5 10
vertex 50 5 9
vertex 40 5 9
endloop
endfacet
facet normal 0 1 0
outer loop
vertex 50 5 10
vertex 40 5 9
vertex 40 5 10
endloop
endfacet
facet normal 0 1 0
outer loop
vertex 40 5 8.6
vertex 40 5 9
vertex 50 5 9
endloop
endfacet
facet normal 0 1 0
outer loop
vertex 40 5 8.6
vertex 50 5 9
vertex 50 5 8
endloop
endfacet
facet normal 0 1 0
outer loop
vertex 40 5 8.6
vertex 50 5 8
vertex 30 5 8
endloop
endfacet
facet normal 0 1 0
outer loop
vertex 40 5 8.6
vertex 30 5 8
vertex 30 5 9
endloop
endfacet
facet normal 0 1 0
outer loop
vertex 40 5 8.6
vertex 30 5 9
vertex 40 5 9
endloop
endfacet
facet normal 0 1 0
outer loop
vertex 34 5 7.6000000000000005
vertex 30 5 8
vertex 50 5 8
endloop
endfacet
facet normal 0 1 0
outer loop
vertex 34 5 7.6000000000000005
vertex 50 5 8
vertex 50 5 7
endloop
endfacet
facet normal 0 1 0
outer loop
vertex 34 5 7.6000000000000005
vertex 50 5 7
vertex 20 5 7
endloop
endfacet
facet normal 0 1 0
outer loop
vertex 34 5 7.6000000000000005
vertex 20 5 7
vertex 20 5 8
endloop
endfacet
facet normal 0 1 0
outer loop
vertex 34 5 7.6000000000000005
vertex 20 5 8
vertex 30 5 8
endloop
endfacet
facet normal 0 0.9999999999999999 0
outer loop
vertex 28 5 6.6000000000000005
vertex 20 5 7
vertex 50 5 7
endloop
endfacet
facet normal 0 1 0
outer loop
vertex 28 5 6.6000000000000005
vertex 50 5 7
vertex 50 5 6
endloop
endfacet
facet normal 0 1 0
outer loop
vertex 28 5 6.6000000000000005
vertex 50 5 6
vertex 10 5 6
endloop
endfacet
facet normal 0 1 0
outer loop
vertex 28 5 6.6000000000000005
vertex 10 5 6
vertex 10 5 7
endloop
endfacet
facet normal 0 1 0
outer loop
vertex 28 5 6.6000000000000005
vertex 10 5 7
vertex 20 5 7
endloop
endfacet
facet normal 0 1 0
outer loop
vertex 22 5 5.6000000000000005
vertex 10 5 6
vertex 50 5 6
endloop
endfacet
facet normal 0 1 0
outer loop
vertex 22 5 5.6000000000000005
vertex 50 5 6
vertex 50 5 5
endloop
endfacet
facet normal 0 1 0
outer loop
vertex 22 5 5.6000000000000005
vertex 50 5 5
vertex 0 5 5
endloop
endfacet
facet normal 0 1 0
outer loop
vertex 22 5 5.6000000000000005
vertex 0 5 5
vertex 0 5 6
endloop
endfacet
facet normal 0 1 0
outer loop
vertex 22 5 5.6000000000000005
vertex 0 5 6
vertex 10 5 6
endloop
endfacet
facet normal 0 1 0
outer loop
vertex 16 5 4.6000000000000005
vertex 0 5 5
vertex 50 5 5
endloop
endfacet
facet normal 0 1 0
outer loop
vertex 16 5 4.6000000000000005
vertex 50 5 5
vertex 50 5 4
endloop
endfacet
facet normal 0 1 0
outer loop
vertex 16 5 4.6000000000000005
vertex 50 5 4
vertex -10 5 4
endloop
endfacet
facet normal 0 1 0
outer loop
vertex 16 5 4.6000000000000005
vertex -10 5 4
vertex -10 5 5
endloop
endfacet
facet normal 0 1 0
outer loop
vertex 16 5 4.6000000000000005
vertex -10 5 5
vertex 0 5 5
endloop
endfacet
facet normal 0 1 0
outer loop
vertex 10 5 3.6
vertex -10 5 4
vertex 50 5 4
endloop
endfacet
facet normal 0 1 0
outer loop
vertex 10 5 3.6
vertex 50 5 4
vertex 50 5 3
endloop
endfacet
facet normal 0 1 0
outer loop
vertex 10 5 3.6
vertex 50 5 3
vertex -20 5 3
endloop
endfacet
facet normal 0 1 0
outer loop
vertex 10 5 3.6
vertex -20 5 3
vertex -20 5 4
endloop
endfacet
facet normal 0 1 0
outer loop
vertex 10 5 3.6
vertex -20 5 4
vertex -10 5 4
endloop
endfacet
facet normal 0 1 0
outer loop
vertex 4 5 2.6
vertex -20 5 3
vertex 50 5 3
endloop
endfacet
facet normal 0 1 0
outer loop
vertex 4 5 2.6
vertex 50 5 3
vertex 50 5 2
endloop
endfacet
facet normal 0 0.9999999999999999 0
outer loop
vertex 4 5 2.6
vertex 50 5 2
vertex -30 5 2
endloop
endfacet
facet normal 0 1 0
outer loop
vertex 4 5 2.6
vertex -30 5 2
vertex -30 5 3
endloop
endfacet
facet normal 0 1 0
outer loop
vertex 4 5 2.6
vertex -30 5 3
vertex -20 5 3
endloop
endfacet
facet normal 0 1 0
outer loop
vertex -2 5 1.6
vertex -30 5 2
vertex 50 5 2
endloop
endfacet
facet normal 0 1 0
outer loop
vertex -2 5 1.6
vertex 50 5 2
vertex 50 5 1
endloop
endfacet
facet normal 0 1 0
outer loop
vertex -2 5 1.6
vertex 50 5 1
vertex -40 5 1
endloop
endfacet
facet normal 0 1 0
outer loop
vertex -2 5 1.6
vertex -40 5 1
vertex -40 5 2
endloop
endfacet
facet normal 0 1 0
outer loop
vertex -2 5 1.6
vertex -40 5 2
vertex -30 5 2
endloop
endfacet
facet normal 0 1 0
outer loop
vertex -8 5 0.6
vertex -40 5 1
vertex 50 5 1
endloop
endfacet
facet normal 0 1 0
outer loop
vertex -8 5 0.6
vertex 50 5 1
vertex 50 5 0
endloop
endfacet
facet normal 0 1 0
outer loop
vertex -8 5 0.6
vertex 50 5 0
vertex -50 5 0
endloop
endfacet
facet normal 0 1 0
outer loop
vertex -8 5 0.6
vertex -50 5 0
vertex -50 5 1
endloop
endfacet
facet normal 0 1 0
outer loop
vertex -8 5 0.6
vertex -50 5 1
vertex -40 5 1
endloop
endfacet
facet normal 0 0 -1
outer loop
vertex 50 5 0
vertex 50 -5 0
vertex -50 -5 0
endloop
endfacet
facet normal 0 0 -1
outer loop
vertex 50 5 0
vertex -50 -5 0
vertex -50 5 0
endloop
endfacet
facet normal 0 0 1
outer loop
vertex -10 -5 5
vertex 0 -5 5
vertex 0 5 5
endloop
endfacet
facet normal 0 0 1
outer loop
vertex -10 -5 5
vertex 0 5 5
vertex -10 5 5
endloop
endfacet
facet normal 0 0 1
outer loop
vertex 0 -5 6
vertex 10 -5 6
vertex 10 5 6
endloop
endfacet
facet normal 0 0 1
outer loop
vertex 0 -5 6
vertex 10 5 6
vertex 0 5 6
endloop
endfacet
facet normal -1 0 0
outer loop
vertex 0 -5 5
vertex 0 -5 6
vertex 0 5 6
endloop
endfacet
facet normal -1 0 0
outer loop
vertex 0 -5 5
vertex 0 5 6
vertex 0 5 5
endloop
endfacet
facet normal 0 0 1
outer loop
vertex 10 -5 7
vertex 20 -5 7
vertex 20 5 7
endloop
endfacet
facet normal 0 0 1
outer loop
vertex 10 -5 7
vertex 20 5 7
vertex 10 5 7
endloop
endfacet
facet normal 0 0 1
outer loop
vertex 20 -5 8
vertex 30 -5 8
vertex 30 5 8
endloop
endfacet
facet normal 0 0 1
outer loop
vertex 20 -5 8
vertex 30 5 8
vertex 20 5 8
endloop
endfacet
facet normal -1 0 0
outer loop
vertex 20 -5 7
vertex 20 -5 8
vertex 20 5 8
endloop
endfacet
facet normal -1 0 0
outer loop
vertex 20 -5 7
vertex 20 5 8
vertex 20 5 7
endloop
endfacet
facet normal -1 0 0
outer loop
vertex 10 -5 6
vertex 10 -5 7
vertex 10 5 7
endloop
endfacet
facet normal -1 0 0
outer loop
vertex 10 -5 6
vertex 10 5 7
vertex 10 5 6
endloop
endfacet
facet normal -1 0 0
outer loop
vertex -10 -5 4
vertex -10 -5 5
vertex -10 5 5
endloop
endfacet
facet normal -1 0 0
outer loop
vertex -10 -5 4
vertex -10 5 5
vertex -10 5 4
endloop
endfacet
facet normal 0 0 1
outer loop
vertex 30 -5 9
vertex 40 -5 9
vertex 40 5 9
endloop
endfacet
facet normal 0 0 1
outer loop
vertex 30 -5 9
vertex 40 5 9
vertex 30 5 9
endloop
endfacet
facet normal 1 0 0
outer loop
vertex 50 0 5
vertex 50 -5 9
vertex 50 -5 8
endloop
endfacet
facet normal 1 0 0
outer loop
vertex 50 0 5
vertex 50 -5 8
vertex 50 -5 7
endloop
endfacet
facet normal 1 0 0
outer loop
vertex 50 0 5
vertex 50 -5 7
vertex 50 -5 6
endloop
endfacet
facet normal 1 0 0
outer loop
vertex 50 0 5
vertex 50 -5 6
vertex 50 -5 5
endloop
endfacet
facet normal 1 0 0
outer loop
vertex 50 0 5
vertex 50 -5 5
vertex 50 -5 4
endloop
endfacet
facet normal 1 0 0
outer loop
vertex 50 0 5
vertex 50 -5 4
vertex 50 -5 3
endloop
endfacet
facet normal 1 0 0
outer loop
vertex 50 0 5
vertex 50 -5 3
vertex 50 -5 2
endloop
endfacet
facet normal 1 0 0
outer loop
vertex 50 0 5
vertex 50 -5 2
vertex 50 -5 1
endloop
endfacet
facet normal 1 0 0
outer loop
vertex 50 0 5
vertex 50 -5 1
vertex 50 -5 0
endloop
endfacet
facet normal 1 0 0
outer loop
vertex 50 0 5
vertex 50 -5 0
vertex 50 5 0
endloop
endfacet
facet normal 1 0 0
outer loop
vertex 50 0 5
vertex 50 5 0
vertex 50 5 1
endloop
endfacet
facet normal 1 0 0
outer loop
vertex 50 0 5
vertex 50 5 1
vertex 50 5 2
endloop
endfacet
facet normal 1 0 0
outer loop
vertex 50 0 5
vertex 50 5 2
vertex 50 5 3
endloop
endfacet
facet normal 1 0 0
outer loop
vertex 50 0 5
vertex 50 5 3
vertex 50 5 4
endloop
endfacet
facet normal 1 0 0
outer loop
vertex 50 0 5
vertex 50 5 4
vertex 50 5 5
endloop
endfacet
facet normal 1 0 0
outer loop
vertex 50 0 5
vertex 50 5 5
vertex 50 5 6
endloop
endfacet
facet normal 1 0 0
outer loop
vertex 50 0 5
vertex 50 5 6
vertex 50 5 7
endloop
endfacet
facet normal 1 0 0
outer loop
vertex 50 0 5
vertex 50 5 7
vertex 50 5 8
endloop
endfacet
facet normal 1 0 0
outer loop
vertex 50 0 5
vertex 50 5 8
vertex 50 5 9
endloop
endfacet
facet normal 1 0 0
outer loop
vertex 50 0 5
vertex 50 5 9
vertex 50 5 10
endloop
endfacet
facet normal 1 0 0
outer loop
vertex 50 0 5
vertex 50 5 10
vertex 50 -5 10
endloop
endfacet
facet normal 1 0 0
outer loop
vertex 50 0 5
vertex 50 -5 10
vertex 50 -5 9
endloop
endfacet
facet normal 0 0 1
outer loop
vertex 40 -5 10
vertex 50 -5 10
vertex 50 5 10
endloop
endfacet
facet normal 0 0 1
outer loop
vertex 40 -5 10
vertex 50 5 10
vertex 40 5 10
endloop
endfacet
facet normal -1 0 0
outer loop
vertex 40 -5 9
vertex 40 -5 10
vertex 40 5 10
endloop
endfacet
facet normal -1 0 0
outer loop
vertex 40 -5 9
vertex 40 5 10
vertex 40 5 9
endloop
endfacet
facet normal -1 0 0
outer loop
vertex -50 -5 0
vertex -50 -5 1
vertex -50 5 1
endloop
endfacet
facet normal -1 0 0
outer loop
vertex -50 -5 0
vertex -50 5 1
vertex -50 5 0
endloop
endfacet
facet normal 0 0 1
outer loop
vertex -50 -5 1
vertex -40 -5 1
vertex -40 5 1
endloop
endfacet
facet normal 0 0 1
outer loop
vertex -50 -5 1
vertex -40 5 1
vertex -50 5 1
endloop
endfacet
facet normal 0 0 1
outer loop
vertex -40 -5 2
vertex -30 -5 2
vertex -30 5 2
endloop
endfacet
facet normal 0 0 1
outer loop
vertex -40 -5 2
vertex -30 5 2
vertex -40 5 2
endloop
endfacet
facet normal -1 0 0
outer loop
vertex -40 -5 1
vertex -40 -5 2
vertex -40 5 2
endloop
endfacet
facet normal -1 0 0
outer loop
vertex -40 -5 1
vertex -40 5 2
vertex -40 5 1
endloop
endfacet
facet normal 0 0 1
outer loop
vertex -30 -5 3
vertex -20 -5 3
vertex -20 5 3
endloop
endfacet
facet normal 0 0 1
outer loop
vertex -30 -5 3
vertex -20 5 3
vertex -30 5 3
endloop
endfacet
facet normal 0 0 1
outer loop
vertex -20 -5 4
vertex -10 -5 4
vertex -10 5 4
endloop
endfacet
facet normal 0 0 1
outer loop
vertex -20 -5 4
vertex -10 5 4
vertex -20 5 4
endloop
endfacet
facet normal -1 0 0
outer loop
vertex -20 -5 3
vertex -20 -5 4
vertex -20 5 4
endloop
endfacet
facet normal -1 0 0
outer loop
vertex -20 -5 3
vertex -20 5 4
vertex -20 5 3
endloop
endfacet
facet normal -1 0 0
outer loop
vertex -30 -5 2
vertex -30 -5 3
vertex -30 5 3
endloop
endfacet
facet normal -1 0 0
outer loop
vertex -30 -5 2
vertex -30 5 3
vertex -30 5 2
endloop
endfacet
facet normal -1 0 0
outer loop
vertex 30 -5 8
vertex 30 -5 9
vertex 30 5 9
endloop
endfacet
facet normal -1 0 0
outer loop
vertex 30 -5 8
vertex 30 5 9
vertex 30 5 8
endloop
endfacet
endsolid JSCAD
